<svg width="30" height="29" viewBox="0 0 30 29" fill="none" xmlns="http://www.w3.org/2000/svg">
<path d="M25.69 15.0187L27.3905 16.6499L19.4586 24.2735L15.2437 20.2246L16.9442 18.5934L19.4586 20.9996L25.69 15.0187ZM12.2069 20.2246L15.851 23.6951H3.7041V21.3814C3.7041 18.8248 8.05269 16.754 13.4216 16.754L15.7174 16.8813L12.2069 20.2246ZM13.4216 5.18555C14.7102 5.18555 15.9461 5.67307 16.8573 6.54088C17.7685 7.40868 18.2804 8.58568 18.2804 9.81293C18.2804 11.0402 17.7685 12.2172 16.8573 13.085C15.9461 13.9528 14.7102 14.4403 13.4216 14.4403C12.133 14.4403 10.8971 13.9528 9.98596 13.085C9.07476 12.2172 8.56286 11.0402 8.56286 9.81293C8.56286 8.58568 9.07476 7.40868 9.98596 6.54088C10.8971 5.67307 12.133 5.18555 13.4216 5.18555Z" fill="#A95260"/>
</svg>
