<svg width="28" height="29" viewBox="0 0 28 29" fill="none" xmlns="http://www.w3.org/2000/svg">
<path d="M17.4127 16.9542C20.5015 16.9542 26.6675 18.4928 26.6675 21.5816V23.8953H8.15796V21.5816C8.15796 18.4928 14.324 16.9542 17.4127 16.9542ZM17.4127 14.6405C16.1855 14.6405 15.0085 14.153 14.1407 13.2852C13.2729 12.4174 12.7853 11.2404 12.7853 10.0131C12.7853 8.78587 13.2729 7.60888 14.1407 6.74107C15.0085 5.87327 16.1855 5.38574 17.4127 5.38574C18.64 5.38574 19.817 5.87327 20.6848 6.74107C21.5526 7.60888 22.0401 8.78587 22.0401 10.0131C22.0401 11.2404 21.5526 12.4174 20.6848 13.2852C19.817 14.153 18.64 14.6405 17.4127 14.6405ZM5.84426 11.8525L8.29678 9.38843L9.9395 11.0312L7.47542 13.4837L9.9395 15.9362L8.29678 17.5789L5.84426 15.1148L3.39175 17.5789L1.74902 15.9362L4.21311 13.4837L1.74902 11.0312L3.39175 9.38843L5.84426 11.8525Z" fill="#A95260"/>
</svg>
