<svg width="25" height="26" viewBox="0 0 25 26" fill="none" xmlns="http://www.w3.org/2000/svg">
<path d="M15.4327 15.1105C12.7165 15.1105 7.29423 16.4635 7.29423 19.1797V21.2143H23.5711V19.1797C23.5711 16.4635 18.1489 15.1105 15.4327 15.1105ZM6.27693 11.0413V7.98941H4.24232V11.0413H1.19041V13.0759H4.24232V16.1278H6.27693V13.0759H9.32884V11.0413M15.4327 13.0759C16.5119 13.0759 17.5469 12.6472 18.31 11.8841C19.0731 11.121 19.5019 10.0859 19.5019 9.00671C19.5019 7.92749 19.0731 6.89247 18.31 6.12934C17.5469 5.36622 16.5119 4.9375 15.4327 4.9375C14.3534 4.9375 13.3184 5.36622 12.5553 6.12934C11.7922 6.89247 11.3634 7.92749 11.3634 9.00671C11.3634 10.0859 11.7922 11.121 12.5553 11.8841C13.3184 12.6472 14.3534 13.0759 15.4327 13.0759Z" fill="#A95260"/>
</svg>
