<svg width="21" height="21" viewBox="0 0 21 21" fill="none" xmlns="http://www.w3.org/2000/svg">
<path id="Vector" d="M15.0649 12.073H17.1626V15.2196H20.3093V17.3174H17.1626V20.4641H15.0649V17.3174H11.9182V15.2196H15.0649V12.073ZM9.8204 15.2196V13.1219H4.57594V15.2196H9.8204ZM15.0649 8.9263H4.57594V11.0241H12.6419C10.9427 12.1464 9.8204 14.0764 9.8204 16.2685C9.8204 17.4118 10.1246 18.4922 10.6595 19.4152H2.47816C1.31389 19.4152 0.380371 18.4712 0.380371 17.3174V2.63294C0.380371 1.46867 1.31389 0.535156 2.47816 0.535156H17.1626C17.719 0.535156 18.2526 0.756172 18.646 1.14958C19.0394 1.54299 19.2604 2.07657 19.2604 2.63294V10.8143C18.3374 10.2794 17.257 9.97519 16.1138 9.97519L15.0649 10.0591V8.9263ZM15.0649 6.82851V4.73073H4.57594V6.82851H15.0649Z" fill="#5C4F51"/>
</svg>
