<svg width="29" height="23" viewBox="0 0 29 23" fill="none" xmlns="http://www.w3.org/2000/svg">
<path id="Vector" d="M18.4069 14.1491C14.9079 14.1491 7.92283 15.9108 7.92283 19.4474V22.0965H28.891V19.4474C28.891 15.9108 21.906 14.1491 18.4069 14.1491ZM6.61231 8.85077V4.87705H3.99129V8.85077H0.0597534V11.4999H3.99129V15.4737H6.61231V11.4999H10.5439V8.85077M18.4069 11.4999C19.7972 11.4999 21.1305 10.9417 22.1136 9.94809C23.0967 8.95446 23.649 7.60682 23.649 6.20162C23.649 4.79643 23.0967 3.44878 22.1136 2.45516C21.1305 1.46153 19.7972 0.90332 18.4069 0.90332C17.0166 0.90332 15.6833 1.46153 14.7002 2.45516C13.7172 3.44878 13.1649 4.79643 13.1649 6.20162C13.1649 7.60682 13.7172 8.95446 14.7002 9.94809C15.6833 10.9417 17.0166 11.4999 18.4069 11.4999Z" fill="#5C4F51"/>
</svg>
