<svg width="25" height="25" viewBox="0 0 25 25" fill="none" xmlns="http://www.w3.org/2000/svg">
<g id="file-plus">
<path id="Vector" d="M14.7497 2.4375H6.69935C5.58237 2.4375 4.68677 3.3331 4.68677 4.45009V20.5508C4.68677 21.6678 5.58237 22.5634 6.69935 22.5634H14.5585C14.0252 21.6476 13.7434 20.6011 13.7434 19.5445C13.7434 16.2137 16.4503 13.5067 19.7812 13.5067C20.1233 13.5067 20.4554 13.5369 20.7875 13.5872V8.47526L14.7497 2.4375ZM13.7434 9.48155V3.94694L19.278 9.48155H13.7434ZM23.8063 20.5508H20.7875V23.5697H18.7749V20.5508H15.756V18.5382H18.7749V15.5193H20.7875V18.5382H23.8063V20.5508Z" fill="#5C4F51"/>
</g>
</svg>
