<svg width="24" height="25" viewBox="0 0 24 25" fill="none" xmlns="http://www.w3.org/2000/svg">
<path d="M17.6264 14.5844H20.1359V18.3486H23.9002V20.8581H20.1359V24.6223H17.6264V20.8581H13.8622V18.3486H17.6264V14.5844ZM11.3527 18.3486V15.8391H5.07903V18.3486H11.3527ZM17.6264 10.8202H5.07903V13.3296H14.728C12.6953 14.6722 11.3527 16.9809 11.3527 19.6034C11.3527 20.971 11.7166 22.2634 12.3565 23.3676H2.56954C1.17678 23.3676 0.0600586 22.2383 0.0600586 20.8581V3.29171C0.0600586 1.89895 1.17678 0.782227 2.56954 0.782227H20.1359C20.8015 0.782227 21.4398 1.04662 21.9104 1.51724C22.381 1.98786 22.6454 2.62615 22.6454 3.29171V13.0787C21.5412 12.4388 20.2489 12.0749 18.8812 12.0749L17.6264 12.1753V10.8202ZM17.6264 8.31068V5.80119H5.07903V8.31068H17.6264Z" fill="#A95260"/>
</svg>
