<svg width="25" height="26" viewBox="0 0 25 26" fill="none" xmlns="http://www.w3.org/2000/svg">
<g clip-path="url(#clip0_734_2410)">
<path d="M2.11569 4.04199H22.672C23.7512 4.04199 24.7276 5.01842 24.7276 6.09762V20.487C24.7276 21.5662 23.7512 22.5427 22.672 22.5427H2.11569C1.03648 22.5427 0.0600586 21.5662 0.0600586 20.487V6.09762C0.0600586 5.01842 1.03648 4.04199 2.11569 4.04199ZM14.4495 7.12544V8.15325H22.672V7.12544H14.4495ZM14.4495 9.18107V10.2089H22.1581H22.672V9.18107H14.4495ZM14.4495 11.2367V12.2645H21.6442V11.2367H14.4495ZM8.28258 15.2554C6.22695 15.2554 2.11569 16.3758 2.11569 18.4314V19.4592H14.4495V18.4314C14.4495 16.3758 10.3382 15.2554 8.28258 15.2554ZM8.28258 7.12544C7.4648 7.12544 6.68051 7.4503 6.10225 8.02856C5.52399 8.60681 5.19913 9.3911 5.19913 10.2089C5.19913 11.0267 5.52399 11.8109 6.10225 12.3892C6.68051 12.9675 7.4648 13.2923 8.28258 13.2923C9.10036 13.2923 9.88464 12.9675 10.4629 12.3892C11.0412 11.8109 11.366 11.0267 11.366 10.2089C11.366 9.3911 11.0412 8.60681 10.4629 8.02856C9.88464 7.4503 9.10036 7.12544 8.28258 7.12544Z" fill="#A95260"/>
</g>
<defs>
<clipPath id="clip0_734_2410">
<rect width="24.6676" height="24.6676" fill="white" transform="translate(0.0600586 0.958984)"/>
</clipPath>
</defs>
</svg>
