<svg width="30" height="30" viewBox="0 0 30 30" fill="none" xmlns="http://www.w3.org/2000/svg">
<path d="M9 3C8.20435 3 7.44129 3.31607 6.87868 3.87868C6.31607 4.44129 6 5.20435 6 6V13.8105C6.49032 13.6717 6.99248 13.5788 7.5 13.533V6C7.5 5.60218 7.65804 5.22064 7.93934 4.93934C8.22064 4.65804 8.60218 4.5 9 4.5H15V9.75C15 10.3467 15.2371 10.919 15.659 11.341C16.081 11.7629 16.6533 12 17.25 12H22.5V24C22.5 24.3978 22.342 24.7794 22.0607 25.0607C21.7794 25.342 21.3978 25.5 21 25.5H15.6C15.327 26.0343 14.9965 26.5373 14.6145 27H21C21.7956 27 22.5587 26.6839 23.1213 26.1213C23.6839 25.5587 24 24.7956 24 24V11.121C23.9995 10.5245 23.7621 9.95255 23.34 9.531L17.469 3.6585C17.0472 3.23697 16.4753 3.00013 15.879 3H9ZM22.1895 10.5H17.25C17.0511 10.5 16.8603 10.421 16.7197 10.2803C16.579 10.1397 16.5 9.94891 16.5 9.75V4.8105L22.1895 10.5ZM15 21.75C15 23.5402 14.2888 25.2571 13.023 26.523C11.7571 27.7888 10.0402 28.5 8.25 28.5C6.45979 28.5 4.7429 27.7888 3.47703 26.523C2.21116 25.2571 1.5 23.5402 1.5 21.75C1.5 19.9598 2.21116 18.2429 3.47703 16.977C4.7429 15.7112 6.45979 15 8.25 15C10.0402 15 11.7571 15.7112 13.023 16.977C14.2888 18.2429 15 19.9598 15 21.75ZM11.781 18.969C11.7113 18.8992 11.6286 18.8437 11.5375 18.8059C11.4463 18.7681 11.3487 18.7487 11.25 18.7487C11.1513 18.7487 11.0537 18.7681 10.9625 18.8059C10.8714 18.8437 10.7887 18.8992 10.719 18.969L6.75 22.9395L5.781 21.969C5.64017 21.8282 5.44916 21.7491 5.25 21.7491C5.05084 21.7491 4.85983 21.8282 4.719 21.969C4.57817 22.1098 4.49905 22.3008 4.49905 22.5C4.49905 22.6992 4.57817 22.8902 4.719 23.031L6.219 24.531C6.28867 24.6008 6.37143 24.6563 6.46255 24.6941C6.55367 24.7319 6.65135 24.7513 6.75 24.7513C6.84865 24.7513 6.94633 24.7319 7.03745 24.6941C7.12857 24.6563 7.21133 24.6008 7.281 24.531L11.781 20.031C11.8508 19.9613 11.9063 19.8786 11.9441 19.7874C11.9819 19.6963 12.0013 19.5987 12.0013 19.5C12.0013 19.4013 11.9819 19.3037 11.9441 19.2126C11.9063 19.1214 11.8508 19.0387 11.781 18.969Z" fill="#A95260"/>
</svg>
