<svg width="30" height="30" viewBox="0 0 30 30" fill="none" xmlns="http://www.w3.org/2000/svg">
<path d="M8.125 15C9.94836 15 11.697 15.7243 12.9864 17.0136C14.2757 18.303 15 20.0516 15 21.875C15 23.6984 14.2757 25.447 12.9864 26.7364C11.697 28.0257 9.94836 28.75 8.125 28.75C6.30164 28.75 4.55295 28.0257 3.26364 26.7364C1.97433 25.447 1.25 23.6984 1.25 21.875C1.25 20.0516 1.97433 18.303 3.26364 17.0136C4.55295 15.7243 6.30164 15 8.125 15ZM15.1612 2.5C15.9067 2.50032 16.6216 2.79661 17.1487 3.32375L20.6638 6.83625L24.1738 10.3513C24.7 10.8788 24.9962 11.5938 24.9962 12.3388V24.6875C24.9962 25.4334 24.6999 26.1488 24.1725 26.6762C23.645 27.2037 22.9297 27.5 22.1837 27.5H13.9875C14.5232 26.9427 14.9766 26.3118 15.3338 25.6262L22.1837 25.625C22.4324 25.625 22.6708 25.5262 22.8467 25.3504C23.0225 25.1746 23.1212 24.9361 23.1212 24.6875L23.12 12.5038H17.8125C17.1 12.5039 16.4141 12.2336 15.8932 11.7475C15.3723 11.2614 15.0553 10.5958 15.0063 9.885L15 9.6925L14.9987 4.375H7.8125C7.56386 4.375 7.3254 4.47377 7.14959 4.64959C6.97377 4.8254 6.875 5.06386 6.875 5.3125V13.8462C6.23098 13.9457 5.60139 14.1228 5 14.3737V5.3125C5 4.56658 5.29632 3.85121 5.82376 3.32376C6.35121 2.79632 7.06658 2.5 7.8125 2.5H15.1612ZM5.11625 18.7075L5.02875 18.78L4.9575 18.8675C4.88547 18.9719 4.84689 19.0957 4.84689 19.2225C4.84689 19.3493 4.88547 19.4731 4.9575 19.5775L5.03 19.665L7.2425 21.8762L5.0325 24.0838L4.96125 24.1712C4.88922 24.2756 4.85064 24.3994 4.85064 24.5263C4.85064 24.6531 4.88922 24.7769 4.96125 24.8813L5.0325 24.9688L5.12 25.04C5.22437 25.112 5.34819 25.1506 5.475 25.1506C5.60181 25.1506 5.72563 25.112 5.83 25.04L5.9175 24.9688L8.125 22.76L10.3375 24.9712L10.4237 25.0437C10.5281 25.1158 10.6519 25.1544 10.7788 25.1544C10.9056 25.1544 11.0294 25.1158 11.1337 25.0437L11.2213 24.9712L11.2925 24.8837C11.3645 24.7794 11.4031 24.6556 11.4031 24.5287C11.4031 24.4019 11.3645 24.2781 11.2925 24.1738L11.22 24.0862L9.00875 21.8762L11.2238 19.6637L11.2962 19.5775C11.3686 19.473 11.4073 19.3489 11.4073 19.2219C11.4073 19.0948 11.3686 18.9707 11.2962 18.8663L11.2238 18.78L11.1375 18.7075C11.033 18.6352 10.9089 18.5965 10.7819 18.5965C10.6548 18.5965 10.5307 18.6352 10.4262 18.7075L10.34 18.78L8.125 20.9925L5.9125 18.78L5.8275 18.7075C5.723 18.6352 5.59895 18.5965 5.47188 18.5965C5.3448 18.5965 5.22075 18.6352 5.11625 18.7075ZM16.875 5.7L16.8763 9.69375C16.8763 10.1688 17.2288 10.56 17.6863 10.6225L17.8138 10.6313L21.8025 10.63L16.875 5.7Z" fill="#5C4F51"/>
</svg>
