<svg width="25" height="21" viewBox="0 0 25 21" fill="none" xmlns="http://www.w3.org/2000/svg">
<path id="Vector" d="M22.889 10.814L24.644 12.5816L16.4579 20.8429L12.1079 16.4552L13.8629 14.6876L16.4579 17.2952L22.889 10.814ZM8.97381 16.4552L12.7347 20.2161H0.198486V17.7089C0.198486 14.9384 4.68644 12.6944 10.2274 12.6944L12.5968 12.8323L8.97381 16.4552ZM10.2274 0.158203C11.5574 0.158203 12.8328 0.686512 13.7732 1.62691C14.7136 2.5673 15.2419 3.84276 15.2419 5.17268C15.2419 6.5026 14.7136 7.77805 13.7732 8.71844C12.8328 9.65884 11.5574 10.1872 10.2274 10.1872C8.89751 10.1872 7.62206 9.65884 6.68166 8.71844C5.74127 7.77805 5.21296 6.5026 5.21296 5.17268C5.21296 3.84276 5.74127 2.5673 6.68166 1.62691C7.62206 0.686512 8.89751 0.158203 10.2274 0.158203Z" fill="#5C4F51"/>
</svg>
