<svg width="28" height="21" viewBox="0 0 28 21" fill="none" xmlns="http://www.w3.org/2000/svg">
<path id="Vector" d="M17.5407 12.9503C20.8115 12.9503 27.3407 14.5795 27.3407 17.8503V20.3003H7.74064V17.8503C7.74064 14.5795 14.2699 12.9503 17.5407 12.9503ZM17.5407 10.5002C16.2411 10.5002 14.9948 9.98399 14.0758 9.06506C13.1569 8.14613 12.6407 6.89979 12.6407 5.60022C12.6407 4.30065 13.1569 3.05431 14.0758 2.13538C14.9948 1.21645 16.2411 0.700195 17.5407 0.700195C18.8403 0.700195 20.0866 1.21645 21.0055 2.13538C21.9245 3.05431 22.4407 4.30065 22.4407 5.60022C22.4407 6.89979 21.9245 8.14613 21.0055 9.06506C20.0866 9.98399 18.8403 10.5002 17.5407 10.5002ZM5.29062 7.54798L7.88764 4.93872L9.62714 6.67823L7.01788 9.27524L9.62714 11.8723L7.88764 13.6118L5.29062 11.0025L2.69361 13.6118L0.954102 11.8723L3.56336 9.27524L0.954102 6.67823L2.69361 4.93872L5.29062 7.54798Z" fill="#5C4F51"/>
</svg>
