<svg width="25" height="25" viewBox="0 0 25 25" fill="none" xmlns="http://www.w3.org/2000/svg">
<path d="M14.4152 2.52832H6.27679C5.14758 2.52832 4.24218 3.43372 4.24218 4.56293V20.8398C4.24218 21.969 5.14758 22.8744 6.27679 22.8744H14.2219C13.6828 21.9486 13.3979 20.8906 13.3979 19.8225C13.3979 16.4552 16.1345 13.7187 19.5017 13.7187C19.8476 13.7187 20.1833 13.7492 20.519 13.8V8.63214L14.4152 2.52832ZM13.3979 9.64944V4.05427L18.9931 9.64944H13.3979ZM23.5709 20.8398H20.519V23.8917H18.4844V20.8398H15.4325V18.8052H18.4844V15.7533H20.519V18.8052H23.5709V20.8398Z" fill="#A95260"/>
</svg>
