<svg width="26" height="26" viewBox="0 0 26 26" fill="none" xmlns="http://www.w3.org/2000/svg">
<path d="M15.706 8.37151C13.4008 8.37151 11.5337 10.2386 11.5337 12.5438V20.8884H4.23214C3.08476 20.8884 2.146 19.9601 2.146 18.8023V6.28537C2.146 5.12755 3.07433 4.19922 4.23214 4.19922H10.4906L12.5767 6.28537H20.9213C22.0687 6.28537 23.0075 7.2137 23.0075 8.37151V10.635L21.349 8.98693L20.744 8.37151H15.706ZM24.0505 14.63V21.9315C24.0505 23.0893 23.1222 24.0176 21.9644 24.0176H15.706C14.5586 24.0176 13.6198 23.0893 13.6198 21.9315V12.5438C13.6198 11.3964 14.5586 10.4577 15.706 10.4577H19.8783L24.0505 14.63ZM21.9644 15.4957L19.0125 12.5438H18.8352V15.673H21.9644V15.4957Z" fill="#972E3F"/>
</svg>
