<svg width="25" height="25" viewBox="0 0 25 25" fill="none" xmlns="http://www.w3.org/2000/svg">
<path d="M13.398 9.70999H11.3634V7.67538H13.398M13.398 17.8484H11.3634V11.7446H13.398M12.3807 2.58887C11.0447 2.58887 9.72186 2.852 8.48761 3.36324C7.25336 3.87449 6.1319 4.62383 5.18725 5.56848C3.27943 7.47629 2.20763 10.0638 2.20763 12.7619C2.20763 15.46 3.27943 18.0475 5.18725 19.9553C6.1319 20.9 7.25336 21.6493 8.48761 22.1606C9.72186 22.6718 11.0447 22.9349 12.3807 22.9349C15.0787 22.9349 17.6663 21.8631 19.5741 19.9553C21.4819 18.0475 22.5537 15.46 22.5537 12.7619C22.5537 11.426 22.2906 10.1031 21.7793 8.86885C21.2681 7.6346 20.5187 6.51313 19.5741 5.56848C18.6294 4.62383 17.508 3.87449 16.2737 3.36324C15.0395 2.852 13.7166 2.58887 12.3807 2.58887Z" fill="#A95260"/>
</svg>
