<svg width="19" height="19" viewBox="0 0 19 19" fill="none" xmlns="http://www.w3.org/2000/svg">
<path d="M8.59858 6.79624H10.4014V4.99341H8.59858M9.5 16.7118C5.52476 16.7118 2.28867 13.4757 2.28867 9.50049C2.28867 5.52524 5.52476 2.28916 9.5 2.28916C13.4752 2.28916 16.7113 5.52524 16.7113 9.50049C16.7113 13.4757 13.4752 16.7118 9.5 16.7118ZM9.5 0.486328C8.31624 0.486328 7.14408 0.719486 6.05043 1.17249C4.95678 1.62549 3.96307 2.28947 3.12603 3.12651C1.43554 4.817 0.48584 7.10978 0.48584 9.50049C0.48584 11.8912 1.43554 14.184 3.12603 15.8745C3.96307 16.7115 4.95678 17.3755 6.05043 17.8285C7.14408 18.2815 8.31624 18.5146 9.5 18.5146C11.8907 18.5146 14.1835 17.5649 15.874 15.8745C17.5645 14.184 18.5142 11.8912 18.5142 9.50049C18.5142 8.31673 18.281 7.14457 17.828 6.05092C17.375 4.95727 16.711 3.96356 15.874 3.12651C15.0369 2.28947 14.0432 1.62549 12.9496 1.17249C11.8559 0.719486 10.6838 0.486328 9.5 0.486328ZM8.59858 14.0076H10.4014V8.59907H8.59858V14.0076Z" fill="white"/>
</svg>
