<svg width="31" height="30" viewBox="0 0 31 30" fill="none" xmlns="http://www.w3.org/2000/svg">
<g id="information">
<path id="Vector" d="M17.0503 11.25H14.5503V8.75H17.0503M17.0503 21.25H14.5503V13.75H17.0503M15.8003 2.5C14.1588 2.5 12.5333 2.82332 11.0167 3.45151C9.50018 4.07969 8.12219 5.00043 6.96146 6.16117C4.61725 8.50537 3.30029 11.6848 3.30029 15C3.30029 18.3152 4.61725 21.4946 6.96146 23.8388C8.12219 24.9996 9.50018 25.9203 11.0167 26.5485C12.5333 27.1767 14.1588 27.5 15.8003 27.5C19.1155 27.5 22.2949 26.183 24.6391 23.8388C26.9833 21.4946 28.3003 18.3152 28.3003 15C28.3003 13.3585 27.977 11.733 27.3488 10.2165C26.7206 8.69989 25.7999 7.3219 24.6391 6.16117C23.4784 5.00043 22.1004 4.07969 20.5838 3.45151C19.0673 2.82332 17.4418 2.5 15.8003 2.5Z" fill="#5C4F51"/>
</g>
</svg>
