<svg width="30" height="29" viewBox="0 0 30 29" fill="none" xmlns="http://www.w3.org/2000/svg">
<path d="M12.9237 15.8721C13.4217 16.3233 13.4217 17.0637 12.9237 17.5149C12.45 17.966 11.6726 17.966 11.1989 17.5149C8.83022 15.259 8.83022 11.5918 11.1989 9.33596L15.4989 5.24072C17.8675 2.98487 21.7181 2.98487 24.0867 5.24072C26.4554 7.49657 26.4554 11.1638 24.0867 13.4196L22.2768 15.1433C22.289 14.1947 22.1311 13.2461 21.791 12.3438L22.3619 11.7885C23.7952 10.435 23.7952 8.23695 22.3619 6.88344C20.9407 5.51836 18.6328 5.51836 17.2116 6.88344L12.9237 10.9671C11.4904 12.3206 11.4904 14.5186 12.9237 15.8721ZM16.3491 10.9671C16.8229 10.5159 17.6003 10.5159 18.074 10.9671C20.4427 13.223 20.4427 16.8902 18.074 19.146L13.774 23.2413C11.4054 25.4971 7.5548 25.4971 5.18615 23.2413C2.81751 20.9854 2.81751 17.3182 5.18615 15.0624L6.99604 13.3386C6.98389 14.2873 7.1418 15.2359 7.48191 16.1498L6.91101 16.6935C5.47768 18.047 5.47768 20.245 6.91101 21.5985C8.3322 22.9636 10.6401 22.9636 12.0613 21.5985L16.3491 17.5149C17.7825 16.1614 17.7825 13.9633 16.3491 12.6098C15.8511 12.1587 15.8511 11.4183 16.3491 10.9671Z" fill="#A95260"/>
</svg>
