<svg width="50" height="51" viewBox="0 0 50 51" fill="none" xmlns="http://www.w3.org/2000/svg">
<g id="list-box">
<path id="Vector" d="M39.5833 6.59277H10.4167C8.125 6.59277 6.25 8.46777 6.25 10.7594V39.9261C6.25 42.2178 8.125 44.0928 10.4167 44.0928H39.5833C41.875 44.0928 43.75 42.2178 43.75 39.9261V10.7594C43.75 8.46777 41.875 6.59277 39.5833 6.59277ZM14.5833 14.9261H18.75V19.0928H14.5833V14.9261ZM14.5833 23.2594H18.75V27.4261H14.5833V23.2594ZM14.5833 31.5928H18.75V35.7594H14.5833V31.5928ZM35.4167 35.7594H22.9167V31.5928H35.4167V35.7594ZM35.4167 27.4261H22.9167V23.2594H35.4167V27.4261ZM35.4167 19.0928H22.9167V14.9261H35.4167V19.0928Z" fill="#972E3F"/>
</g>
</svg>
