<svg width="407" height="140" viewBox="0 0 407 140" fill="none" xmlns="http://www.w3.org/2000/svg">
<path d="M186.601 73.9801C180.649 73.9801 175.657 73.112 171.627 71.3758C167.658 69.6396 164.651 67.3764 162.605 64.5861C160.558 61.7958 159.473 58.8195 159.349 55.6571C159.349 55.1611 159.535 54.727 159.907 54.355C160.279 53.9209 160.744 53.7039 161.303 53.7039H171.255C172.061 53.7039 172.681 53.8899 173.115 54.262C173.549 54.572 173.952 54.9751 174.324 55.4711C174.758 56.5252 175.44 57.5483 176.37 58.5404C177.362 59.5325 178.695 60.3696 180.37 61.0517C182.044 61.6718 184.121 61.9818 186.601 61.9818C190.632 61.9818 193.639 61.3307 195.623 60.0286C197.669 58.7265 198.693 56.9593 198.693 54.727C198.693 53.1149 198.135 51.8127 197.018 50.8206C195.964 49.8285 194.259 48.9294 191.903 48.1233C189.609 47.3172 186.539 46.4491 182.695 45.519C178.044 44.5269 174.076 43.2558 170.79 41.7056C167.565 40.0935 165.116 38.0472 163.442 35.567C161.83 33.0247 161.024 29.8934 161.024 26.173C161.024 22.4526 162.047 19.1662 164.093 16.3139C166.139 13.3996 169.022 11.1363 172.743 9.52417C176.463 7.84999 180.897 7.0129 186.043 7.0129C190.198 7.0129 193.856 7.57096 197.018 8.68708C200.243 9.8032 202.909 11.2604 205.017 13.0585C207.187 14.8567 208.831 16.7789 209.947 18.8252C211.063 20.8714 211.652 22.8556 211.714 24.7778C211.714 25.2739 211.528 25.7389 211.156 26.173C210.784 26.545 210.319 26.731 209.761 26.731H199.344C198.724 26.731 198.166 26.607 197.669 26.359C197.173 26.111 196.77 25.6769 196.46 25.0568C196.088 23.4447 194.972 22.0495 193.112 20.8714C191.314 19.6313 188.958 19.0112 186.043 19.0112C183.005 19.0112 180.587 19.5692 178.788 20.6854C177.052 21.8015 176.184 23.5067 176.184 25.8009C176.184 27.2891 176.618 28.5602 177.486 29.6143C178.416 30.6064 179.936 31.5055 182.044 32.3116C184.214 33.0557 187.066 33.8928 190.601 34.8229C196.057 35.939 200.491 37.2722 203.901 38.8223C207.311 40.3725 209.823 42.3877 211.435 44.868C213.047 47.2862 213.853 50.3556 213.853 54.076C213.853 58.2304 212.675 61.7958 210.319 64.7721C208.025 67.7484 204.831 70.0427 200.739 71.6549C196.708 73.205 191.996 73.9801 186.601 73.9801ZM249.973 73.9801C244.144 73.9801 239.153 73.019 234.998 71.0968C230.906 69.1126 227.713 66.2603 225.418 62.5399C223.186 58.7575 221.977 54.2 221.791 48.8674C221.729 46.2011 221.698 43.3488 221.698 40.3105C221.698 37.2722 221.729 34.3888 221.791 31.6605C221.977 26.452 223.186 22.0185 225.418 18.3601C227.713 14.7017 230.937 11.9114 235.091 9.98922C239.308 8.005 244.268 7.0129 249.973 7.0129C254.562 7.0129 258.592 7.60196 262.064 8.78009C265.537 9.95821 268.451 11.5084 270.807 13.4306C273.164 15.2908 274.962 17.337 276.202 19.5692C277.442 21.8015 278.093 23.9407 278.155 25.9869C278.155 26.545 277.969 27.0411 277.597 27.4751C277.225 27.8471 276.729 28.0332 276.109 28.0332H264.576C263.956 28.0332 263.459 27.9091 263.087 27.6611C262.777 27.4131 262.498 27.0411 262.25 26.545C261.816 25.4289 261.103 24.3128 260.111 23.1966C259.181 22.0185 257.91 21.0264 256.298 20.2203C254.686 19.4142 252.577 19.0112 249.973 19.0112C246.067 19.0112 242.966 20.0343 240.672 22.0805C238.44 24.1267 237.231 27.4751 237.045 32.1256C236.859 37.4582 236.859 42.8838 237.045 48.4024C237.231 53.2389 238.471 56.7112 240.765 58.8195C243.121 60.9277 246.253 61.9818 250.159 61.9818C252.701 61.9818 254.965 61.5478 256.949 60.6797C258.995 59.7496 260.607 58.3234 261.785 56.4012C262.963 54.479 263.553 52.0297 263.553 49.0534V46.7282H253.414C252.794 46.7282 252.267 46.5111 251.833 46.0771C251.399 45.581 251.182 45.023 251.182 44.4029V38.4503C251.182 37.7682 251.399 37.2101 251.833 36.7761C252.267 36.3421 252.794 36.125 253.414 36.125H276.202C276.884 36.125 277.442 36.3421 277.876 36.7761C278.31 37.2101 278.527 37.7682 278.527 38.4503V48.5884C278.527 53.9209 277.349 58.4784 274.993 62.2608C272.698 66.0432 269.381 68.9576 265.041 71.0038C260.762 72.988 255.74 73.9801 249.973 73.9801ZM292.196 73.05C291.514 73.05 290.956 72.833 290.522 72.3989C290.088 71.9649 289.871 71.4068 289.871 70.7248V10.2683C289.871 9.58617 290.088 9.02811 290.522 8.59407C290.956 8.16002 291.514 7.943 292.196 7.943H317.588C322.61 7.943 326.951 8.71808 330.609 10.2683C334.329 11.8184 337.213 14.1747 339.259 17.337C341.367 20.4373 342.421 24.3128 342.421 28.9633C342.421 33.6758 341.367 37.5822 339.259 40.6825C337.213 43.7208 334.329 45.9841 330.609 47.4723C326.951 48.9604 322.61 49.7045 317.588 49.7045H305.124V70.7248C305.124 71.4068 304.907 71.9649 304.473 72.3989C304.039 72.833 303.481 73.05 302.799 73.05H292.196ZM304.845 38.1712H317.123C320.285 38.1712 322.734 37.3962 324.47 35.846C326.269 34.2958 327.168 31.9706 327.168 28.8702C327.168 26.142 326.362 23.9097 324.749 22.1735C323.199 20.4373 320.657 19.5692 317.123 19.5692H304.845V38.1712ZM343.825 73.05C343.267 73.05 342.802 72.864 342.43 72.4919C342.058 72.0579 341.872 71.5928 341.872 71.0968C341.872 70.7868 341.903 70.5077 341.965 70.2597L364.101 10.4543C364.287 9.7722 364.659 9.18313 365.218 8.68708C365.776 8.19102 366.551 7.943 367.543 7.943H379.448C380.44 7.943 381.215 8.19102 381.773 8.68708C382.331 9.18313 382.703 9.7722 382.889 10.4543L405.026 70.2597C405.088 70.5077 405.119 70.7868 405.119 71.0968C405.119 71.5928 404.933 72.0579 404.561 72.4919C404.189 72.864 403.724 73.05 403.166 73.05H393.493C392.562 73.05 391.88 72.833 391.446 72.3989C391.012 71.9649 390.733 71.5618 390.609 71.1898L386.61 60.7727H360.381L356.382 71.1898C356.258 71.5618 355.979 71.9649 355.544 72.3989C355.11 72.833 354.428 73.05 353.498 73.05H343.825ZM363.822 48.7744H383.075L373.495 21.9875L363.822 48.7744Z" fill="#752030"/>
<path d="M62.88 130.18C93.7251 130.18 118.73 105.175 118.73 74.33C118.73 43.4849 93.7251 18.48 62.88 18.48C32.0349 18.48 7.03 43.4849 7.03 74.33C7.03 105.175 32.0349 130.18 62.88 130.18Z" stroke="#752030" stroke-width="3" stroke-linecap="round" stroke-linejoin="round"/>
<path d="M123.81 66.74H122.51C122.454 66.7309 122.396 66.7309 122.34 66.74C120.987 66.667 119.661 66.3271 118.44 65.74C116.817 64.9975 115.399 63.8712 114.308 62.4583C113.218 61.0454 112.487 59.3883 112.18 57.63C112.1 57.2 112.06 56.77 112 56.34V55C112 54.94 112 54.87 112 54.81C112.068 53.4625 112.408 52.1426 113 50.93C113.837 49.0723 115.179 47.4867 116.872 46.3536C118.566 45.2205 120.543 44.5852 122.58 44.52C124.748 44.3412 126.917 44.8598 128.77 46C130.378 46.9245 131.724 48.2432 132.681 49.8318C133.638 51.4204 134.174 53.2266 134.24 55.08C134.386 57.0759 133.956 59.0718 133 60.83C132.216 62.328 131.097 63.6252 129.731 64.6207C128.364 65.6161 126.786 66.2832 125.12 66.57C124.66 66.65 124.23 66.68 123.81 66.74ZM125.81 57H123.14H121C120.129 56.9863 119.281 57.2793 118.605 57.8278C117.928 58.3763 117.467 59.1452 117.3 60C117.217 60.2521 117.191 60.5197 117.226 60.7829C117.26 61.0462 117.354 61.2981 117.5 61.52C117.762 61.8454 118.072 62.1286 118.42 62.36C120.105 63.5562 122.187 64.0543 124.23 63.75C125.774 63.5361 127.225 62.8836 128.41 61.87C128.592 61.7175 128.737 61.5258 128.833 61.3093C128.93 61.0928 128.977 60.8571 128.97 60.62C128.965 59.73 128.636 58.8721 128.046 58.2062C127.455 57.5402 126.643 57.1116 125.76 57M119.44 51.52C119.442 52.2483 119.66 52.9596 120.066 53.5638C120.473 54.1681 121.05 54.6382 121.723 54.9146C122.397 55.191 123.138 55.2613 123.851 55.1165C124.565 54.9718 125.22 54.6185 125.733 54.1015C126.246 53.5844 126.593 52.9268 126.732 52.2119C126.871 51.4971 126.795 50.757 126.513 50.0855C126.231 49.414 125.756 48.8413 125.149 48.4398C124.541 48.0383 123.828 47.8261 123.1 47.83C122.126 47.8353 121.193 48.2267 120.507 48.9184C119.821 49.6102 119.437 50.5457 119.44 51.52Z" fill="#972E3F"/>
<path d="M125.81 57H123.14H121C120.129 56.9863 119.281 57.2793 118.605 57.8278C117.928 58.3763 117.467 59.1452 117.3 60C117.217 60.2521 117.191 60.5197 117.226 60.7829C117.26 61.0462 117.354 61.2981 117.5 61.52C117.762 61.8454 118.072 62.1286 118.42 62.36C120.105 63.5562 122.187 64.0543 124.23 63.75C125.774 63.5361 127.225 62.8836 128.41 61.87C128.592 61.7175 128.737 61.5258 128.833 61.3093C128.93 61.0928 128.977 60.8571 128.97 60.62C128.965 59.73 128.636 58.8721 128.046 58.2062C127.455 57.5402 126.643 57.1116 125.76 57M123.81 66.74H122.51C122.454 66.7309 122.396 66.7309 122.34 66.74C120.987 66.667 119.661 66.3271 118.44 65.74C116.817 64.9975 115.399 63.8712 114.308 62.4583C113.218 61.0454 112.487 59.3883 112.18 57.63C112.1 57.2 112.06 56.77 112 56.34V55C112 54.94 112 54.87 112 54.81C112.068 53.4625 112.408 52.1426 113 50.93C113.837 49.0723 115.179 47.4867 116.872 46.3536C118.566 45.2205 120.543 44.5852 122.58 44.52C124.748 44.3412 126.917 44.8598 128.77 46C130.378 46.9245 131.724 48.2432 132.681 49.8318C133.638 51.4204 134.174 53.2266 134.24 55.08C134.386 57.0759 133.956 59.0718 133 60.83C132.216 62.328 131.097 63.6252 129.731 64.6207C128.364 65.6161 126.786 66.2832 125.12 66.57C124.66 66.65 124.23 66.68 123.81 66.74ZM119.44 51.52C119.442 52.2483 119.66 52.9596 120.066 53.5638C120.473 54.1681 121.05 54.6382 121.723 54.9146C122.397 55.191 123.138 55.2613 123.851 55.1165C124.565 54.9718 125.22 54.6185 125.733 54.1015C126.246 53.5844 126.593 52.9268 126.732 52.2119C126.871 51.4971 126.795 50.757 126.513 50.0855C126.231 49.414 125.756 48.8413 125.149 48.4398C124.541 48.0383 123.828 47.8261 123.1 47.83C122.126 47.8353 121.193 48.2267 120.507 48.9184C119.821 49.6102 119.437 50.5457 119.44 51.52Z" stroke="#752030" stroke-width="2" stroke-miterlimit="10"/>
<path d="M121.07 57C120.2 56.9882 119.353 57.282 118.677 57.8301C118.001 58.3783 117.538 59.1461 117.37 60C117.287 60.2538 117.262 60.5229 117.297 60.7877C117.331 61.0524 117.425 61.306 117.57 61.53C117.837 61.8504 118.147 62.133 118.49 62.37C119.978 63.4028 121.766 63.9139 123.575 63.8235C125.384 63.733 127.112 63.0461 128.49 61.87C128.665 61.7105 128.802 61.5134 128.891 61.2935C128.979 61.0735 129.016 60.8365 129 60.6C128.993 59.7045 128.657 58.8429 128.056 58.1791C127.455 57.5153 126.63 57.0957 125.74 57C124.88 56.92 124.02 57 123.15 57" fill="#F7F7F7"/>
<path d="M119.44 51.52C119.436 50.7917 119.648 50.0787 120.05 49.4711C120.451 48.8635 121.024 48.3888 121.696 48.1069C122.367 47.825 123.107 47.7487 123.822 47.8876C124.537 48.0265 125.194 48.3744 125.711 48.8873C126.229 49.4001 126.582 50.0548 126.727 50.7686C126.871 51.4823 126.801 52.2229 126.525 52.8967C126.248 53.5705 125.778 54.1471 125.174 54.5535C124.57 54.96 123.858 55.178 123.13 55.18C122.647 55.1826 122.169 55.09 121.722 54.9073C121.275 54.7247 120.868 54.4557 120.526 54.1157C120.183 53.7757 119.91 53.3714 119.724 52.926C119.538 52.4806 119.441 52.0028 119.44 51.52Z" fill="#F7F7F7"/>
<path d="M90.81 138.74H89.51C89.4537 138.731 89.3963 138.731 89.34 138.74C87.9868 138.667 86.6614 138.327 85.44 137.74C83.8169 136.998 82.3988 135.871 81.3082 134.458C80.2176 133.045 79.4872 131.388 79.18 129.63C79.1 129.2 79.06 128.77 79 128.34V127C79 126.94 79 126.87 79 126.81C79.0682 125.462 79.4083 124.143 80 122.93C80.8372 121.072 82.1789 119.487 83.8724 118.354C85.5659 117.22 87.5434 116.585 89.58 116.52C91.7483 116.341 93.9171 116.86 95.77 118C97.3778 118.924 98.7236 120.243 99.6807 121.832C100.638 123.42 101.174 125.227 101.24 127.08C101.366 129.066 100.922 131.048 99.96 132.79C99.176 134.288 98.0573 135.585 96.6906 136.581C95.324 137.576 93.7463 138.243 92.08 138.53C91.66 138.65 91.23 138.68 90.81 138.74ZM92.81 129H90.14H88C87.1292 128.986 86.2814 129.279 85.6049 129.828C84.9285 130.376 84.4666 131.145 84.3 132C84.2165 132.252 84.1912 132.52 84.2258 132.783C84.2604 133.046 84.3542 133.298 84.5 133.52C84.762 133.845 85.0722 134.129 85.42 134.36C87.1045 135.556 89.1865 136.054 91.23 135.75C92.7745 135.536 94.2252 134.884 95.41 133.87C95.5917 133.718 95.7365 133.526 95.8335 133.309C95.9305 133.093 95.9772 132.857 95.97 132.62C95.9649 131.73 95.6365 130.872 95.046 130.206C94.4555 129.54 93.643 129.112 92.76 129M86.44 123.52C86.442 124.248 86.66 124.96 87.0665 125.564C87.4729 126.168 88.0495 126.638 88.7233 126.915C89.3971 127.191 90.1377 127.261 90.8514 127.117C91.5652 126.972 92.2199 126.619 92.7327 126.101C93.2456 125.584 93.5935 124.927 93.7324 124.212C93.8713 123.497 93.795 122.757 93.5131 122.086C93.2312 121.414 92.7564 120.841 92.1489 120.44C91.5413 120.038 90.8282 119.826 90.1 119.83C89.1257 119.835 88.1933 120.227 87.5072 120.918C86.8211 121.61 86.4373 122.546 86.44 123.52Z" fill="#972E3F"/>
<path d="M92.81 129H90.14H88C87.1292 128.986 86.2814 129.279 85.6049 129.828C84.9285 130.376 84.4666 131.145 84.3 132C84.2165 132.252 84.1912 132.52 84.2258 132.783C84.2604 133.046 84.3542 133.298 84.5 133.52C84.762 133.845 85.0722 134.129 85.42 134.36C87.1045 135.556 89.1865 136.054 91.23 135.75C92.7745 135.536 94.2252 134.884 95.41 133.87C95.5917 133.718 95.7365 133.526 95.8335 133.309C95.9305 133.093 95.9772 132.857 95.97 132.62C95.9649 131.73 95.6365 130.872 95.046 130.206C94.4555 129.54 93.643 129.112 92.76 129M90.81 138.74H89.51C89.4537 138.731 89.3963 138.731 89.34 138.74C87.9868 138.667 86.6614 138.327 85.44 137.74C83.8169 136.998 82.3988 135.871 81.3082 134.458C80.2176 133.045 79.4872 131.388 79.18 129.63C79.1 129.2 79.06 128.77 79 128.34V127C79 126.94 79 126.87 79 126.81C79.0682 125.462 79.4083 124.143 80 122.93C80.8372 121.072 82.1789 119.487 83.8724 118.354C85.5659 117.22 87.5434 116.585 89.58 116.52C91.7483 116.341 93.9171 116.86 95.77 118C97.3778 118.924 98.7236 120.243 99.6807 121.832C100.638 123.42 101.174 125.227 101.24 127.08C101.366 129.066 100.922 131.048 99.96 132.79C99.176 134.288 98.0573 135.585 96.6906 136.581C95.324 137.576 93.7463 138.243 92.08 138.53C91.66 138.65 91.23 138.68 90.81 138.74ZM86.44 123.52C86.442 124.248 86.66 124.96 87.0665 125.564C87.4729 126.168 88.0495 126.638 88.7233 126.915C89.3971 127.191 90.1377 127.261 90.8514 127.117C91.5652 126.972 92.2199 126.619 92.7327 126.101C93.2456 125.584 93.5935 124.927 93.7324 124.212C93.8713 123.497 93.795 122.757 93.5131 122.086C93.2312 121.414 92.7564 120.841 92.1489 120.44C91.5413 120.038 90.8282 119.826 90.1 119.83C89.1257 119.835 88.1933 120.227 87.5072 120.918C86.8211 121.61 86.4373 122.546 86.44 123.52Z" stroke="#752030" stroke-width="2" stroke-miterlimit="10"/>
<path d="M88.07 129C87.1997 128.988 86.3529 129.282 85.6769 129.83C85.0008 130.378 84.5384 131.146 84.37 132C84.2871 132.254 84.2621 132.523 84.2967 132.788C84.3313 133.052 84.4247 133.306 84.57 133.53C84.8372 133.85 85.1467 134.133 85.49 134.37C86.978 135.403 88.7661 135.914 90.5752 135.823C92.3842 135.733 94.1124 135.046 95.49 133.87C95.6654 133.711 95.8023 133.513 95.8907 133.294C95.979 133.074 96.0164 132.836 96 132.6C95.9929 131.705 95.6568 130.843 95.0557 130.179C94.4546 129.515 93.6304 129.096 92.74 129C91.88 128.92 91.02 129 90.15 129" fill="#F7F7F7"/>
<path d="M86.44 123.52C86.436 122.792 86.6483 122.079 87.0498 121.471C87.4513 120.864 88.024 120.389 88.6955 120.107C89.367 119.825 90.107 119.749 90.8219 119.888C91.5368 120.027 92.1944 120.374 92.7114 120.887C93.2285 121.4 93.5818 122.055 93.7265 122.769C93.8713 123.482 93.801 124.223 93.5246 124.897C93.2482 125.57 92.7781 126.147 92.1738 126.554C91.5695 126.96 90.8582 127.178 90.13 127.18C89.6472 127.183 89.1686 127.09 88.7217 126.907C88.2748 126.725 87.8683 126.456 87.5255 126.116C87.1827 125.776 86.9104 125.371 86.7241 124.926C86.5379 124.481 86.4413 124.003 86.44 123.52Z" fill="#F7F7F7"/>
<path d="M56.92 54H42.6C41.9334 54 41.2733 54.1315 40.6575 54.3869C40.0417 54.6423 39.4824 55.0166 39.0114 55.4885C38.5405 55.9604 38.1673 56.5204 37.9131 57.1367C37.6589 57.753 37.5287 58.4134 37.53 59.08V89.54C37.53 90.8846 38.0642 92.1742 39.015 93.125C39.9658 94.0758 41.2554 94.61 42.6 94.61H83.16C84.5047 94.61 85.7942 94.0758 86.745 93.125C87.6959 92.1742 88.23 90.8846 88.23 89.54V64.19C88.2313 63.5238 88.1011 62.864 87.8468 62.2482C87.5924 61.6325 87.219 61.0731 86.748 60.602C86.2769 60.131 85.7175 59.7576 85.1018 59.5032C84.4861 59.2489 83.8262 59.1187 83.16 59.12H62.88L58.44 54.67C58.0416 54.2548 57.4952 54.014 56.92 54Z" fill="#972E3F" stroke="#752030" stroke-width="2" stroke-miterlimit="10"/>
<path d="M62.88 69L53.83 73.94L62.88 78.87L70.28 74.87V80.55H71.92V73.92M57.12 77.35V80.64L62.88 83.78L68.63 80.64V77.35L62.88 80.49L57.12 77.35Z" fill="white"/>
<path d="M46.81 28.74H45.51C45.4537 28.7309 45.3963 28.7309 45.34 28.74C43.9868 28.667 42.6614 28.3272 41.44 27.74C39.8169 26.9975 38.3988 25.8712 37.3082 24.4583C36.2176 23.0454 35.4872 21.3883 35.18 19.63C35.1 19.2 35.06 18.77 35 18.34V17C35 16.94 35 16.87 35 16.81C35.0682 15.4625 35.4083 14.1426 36 12.93C36.8372 11.0723 38.1789 9.48674 39.8724 8.3536C41.5659 7.22046 43.5434 6.58519 45.58 6.52002C47.7483 6.34123 49.9171 6.85976 51.77 8.00002C53.3778 8.92446 54.7236 10.2432 55.6807 11.8318C56.6377 13.4204 57.1743 15.2266 57.24 17.08C57.3863 19.0759 56.9559 21.0718 56 22.83C55.216 24.328 54.0973 25.6252 52.7306 26.6207C51.364 27.6161 49.7863 28.2832 48.12 28.57C47.66 28.65 47.23 28.68 46.81 28.74ZM48.81 19H46.14H44C43.1292 18.9863 42.2814 19.2793 41.605 19.8278C40.9285 20.3763 40.4666 21.1452 40.3 22C40.2165 22.2521 40.1912 22.5197 40.2258 22.7829C40.2604 23.0462 40.3542 23.2981 40.5 23.52C40.762 23.8454 41.0722 24.1286 41.42 24.36C43.1045 25.5562 45.1865 26.0543 47.23 25.75C48.7745 25.5361 50.2252 24.8836 51.41 23.87C51.5972 23.7205 51.7477 23.5301 51.85 23.3134C51.9522 23.0968 52.0036 22.8596 52 22.62C51.994 21.7254 51.6614 20.8638 51.0647 20.1972C50.4681 19.5305 49.6485 19.1048 48.76 19M42.44 13.52C42.442 14.2483 42.66 14.9596 43.0665 15.5638C43.4729 16.1681 44.0495 16.6382 44.7233 16.9146C45.3971 17.191 46.1377 17.2613 46.8514 17.1165C47.5652 16.9718 48.2199 16.6185 48.7327 16.1015C49.2456 15.5844 49.5935 14.9268 49.7324 14.2119C49.8713 13.4971 49.795 12.757 49.5131 12.0855C49.2312 11.414 48.7564 10.8413 48.1489 10.4398C47.5413 10.0383 46.8282 9.82606 46.1 9.83002C45.1257 9.83531 44.1933 10.2267 43.5072 10.9185C42.8211 11.6102 42.4373 12.5457 42.44 13.52Z" fill="#972E3F"/>
<path d="M48.81 19H46.14H44C43.1292 18.9863 42.2814 19.2793 41.605 19.8278C40.9285 20.3763 40.4666 21.1452 40.3 22C40.2165 22.2521 40.1912 22.5197 40.2258 22.7829C40.2604 23.0462 40.3542 23.2981 40.5 23.52C40.762 23.8454 41.0722 24.1286 41.42 24.36C43.1045 25.5562 45.1865 26.0543 47.23 25.75C48.7745 25.5361 50.2252 24.8836 51.41 23.87C51.5972 23.7205 51.7477 23.5301 51.85 23.3134C51.9522 23.0968 52.0036 22.8596 52 22.62C51.994 21.7254 51.6614 20.8638 51.0647 20.1972C50.4681 19.5305 49.6485 19.1048 48.76 19M46.81 28.74H45.51C45.4537 28.7309 45.3963 28.7309 45.34 28.74C43.9868 28.667 42.6614 28.3272 41.44 27.74C39.8169 26.9975 38.3988 25.8712 37.3082 24.4583C36.2176 23.0454 35.4872 21.3883 35.18 19.63C35.1 19.2 35.06 18.77 35 18.34V17C35 16.94 35 16.87 35 16.81C35.0682 15.4625 35.4083 14.1426 36 12.93C36.8372 11.0723 38.1789 9.48674 39.8724 8.3536C41.5659 7.22046 43.5434 6.58519 45.58 6.52002C47.7483 6.34123 49.9171 6.85976 51.77 8.00002C53.3778 8.92446 54.7236 10.2432 55.6807 11.8318C56.6377 13.4204 57.1743 15.2266 57.24 17.08C57.3863 19.0759 56.9559 21.0718 56 22.83C55.216 24.328 54.0973 25.6252 52.7306 26.6207C51.364 27.6161 49.7863 28.2832 48.12 28.57C47.66 28.65 47.23 28.68 46.81 28.74ZM42.44 13.52C42.442 14.2483 42.66 14.9596 43.0665 15.5638C43.4729 16.1681 44.0495 16.6382 44.7233 16.9146C45.3971 17.191 46.1377 17.2613 46.8514 17.1165C47.5652 16.9718 48.2199 16.6185 48.7327 16.1015C49.2456 15.5844 49.5935 14.9268 49.7324 14.2119C49.8713 13.4971 49.795 12.757 49.5131 12.0855C49.2312 11.414 48.7564 10.8413 48.1489 10.4398C47.5413 10.0383 46.8282 9.82606 46.1 9.83002C45.1257 9.83531 44.1933 10.2267 43.5072 10.9185C42.8211 11.6102 42.4373 12.5457 42.44 13.52Z" stroke="#752030" stroke-width="2" stroke-miterlimit="10"/>
<path d="M44.07 19C43.1997 18.9882 42.3529 19.282 41.6769 19.8301C41.0008 20.3783 40.5384 21.1461 40.37 22C40.2871 22.2538 40.2621 22.5229 40.2967 22.7877C40.3313 23.0524 40.4247 23.306 40.57 23.53C40.8372 23.8504 41.1467 24.133 41.49 24.37C42.978 25.4028 44.7661 25.9139 46.5752 25.8235C48.3842 25.733 50.1125 25.0461 51.49 23.87C51.6654 23.7105 51.8023 23.5134 51.8907 23.2935C51.979 23.0735 52.0164 22.8365 52 22.6C51.994 21.7107 51.6635 20.8541 51.0706 20.1912C50.4777 19.5284 49.6632 19.1048 48.78 19C47.92 18.92 47.06 19 46.19 19" fill="#F7F7F7"/>
<path d="M42.44 13.52C42.436 12.7917 42.6483 12.0787 43.0498 11.4711C43.4513 10.8635 44.024 10.3888 44.6955 10.1069C45.367 9.82498 46.107 9.74866 46.8219 9.88758C47.5368 10.0265 48.1944 10.3744 48.7115 10.8873C49.2285 11.4001 49.5818 12.0548 49.7265 12.7686C49.8713 13.4823 49.801 14.2229 49.5246 14.8967C49.2482 15.5705 48.7781 16.1471 48.1738 16.5535C47.5695 16.96 46.8583 17.178 46.13 17.18C45.6472 17.1826 45.1686 17.09 44.7217 16.9073C44.2748 16.7247 43.8683 16.4557 43.5255 16.1157C43.1827 15.7757 42.9104 15.3714 42.7241 14.926C42.5379 14.4806 42.4413 14.0028 42.44 13.52Z" fill="#F7F7F7"/>
<path d="M12.81 114.74H11.51C11.4537 114.731 11.3963 114.731 11.34 114.74C9.98679 114.667 8.66138 114.327 7.44 113.74C5.81688 112.998 4.39882 111.871 3.3082 110.458C2.21759 109.045 1.48717 107.388 1.18 105.63C1.1 105.2 1.06 104.77 1 104.34V103C1 102.94 1 102.87 1 102.81C1.06816 101.462 1.40832 100.143 2 98.93C2.83722 97.0723 4.17886 95.4867 5.87238 94.3536C7.56591 93.2205 9.54339 92.5852 11.58 92.52C13.7483 92.3412 15.9171 92.8598 17.77 94C19.3778 94.9245 20.7236 96.2432 21.6807 97.8318C22.6377 99.4204 23.1743 101.227 23.24 103.08C23.3863 105.076 22.9559 107.072 22 108.83C21.216 110.328 20.0973 111.625 18.7306 112.621C17.364 113.616 15.7863 114.283 14.12 114.57C13.66 114.65 13.23 114.68 12.81 114.74ZM14.81 105H12.14H10C9.12924 104.986 8.2814 105.279 7.60495 105.828C6.9285 106.376 6.46655 107.145 6.3 108C6.21653 108.252 6.19116 108.52 6.2258 108.783C6.26044 109.046 6.35418 109.298 6.5 109.52C6.76197 109.845 7.07224 110.129 7.42 110.36C9.10453 111.556 11.1865 112.054 13.23 111.75C14.7745 111.536 16.2252 110.884 17.41 109.87C17.5917 109.718 17.7365 109.526 17.8335 109.309C17.9305 109.093 17.9772 108.857 17.97 108.62C17.9649 107.73 17.6365 106.872 17.046 106.206C16.4555 105.54 15.643 105.112 14.76 105M8.44 99.52C8.44199 100.248 8.66001 100.96 9.06647 101.564C9.47292 102.168 10.0495 102.638 10.7233 102.915C11.3971 103.191 12.1377 103.261 12.8514 103.117C13.5652 102.972 14.2199 102.619 14.7327 102.101C15.2456 101.584 15.5935 100.927 15.7324 100.212C15.8713 99.4971 15.795 98.757 15.5131 98.0855C15.2312 97.414 14.7564 96.8413 14.1489 96.4398C13.5413 96.0383 12.8282 95.8261 12.1 95.83C11.1257 95.8353 10.1933 96.2267 9.50723 96.9185C8.82113 97.6102 8.43734 98.5457 8.44 99.52Z" fill="#972E3F"/>
<path d="M14.81 105H12.14H10C9.12924 104.986 8.2814 105.279 7.60495 105.828C6.9285 106.376 6.46655 107.145 6.3 108C6.21653 108.252 6.19116 108.52 6.2258 108.783C6.26044 109.046 6.35418 109.298 6.5 109.52C6.76197 109.845 7.07224 110.129 7.42 110.36C9.10453 111.556 11.1865 112.054 13.23 111.75C14.7745 111.536 16.2252 110.884 17.41 109.87C17.5917 109.718 17.7365 109.526 17.8335 109.309C17.9305 109.093 17.9772 108.857 17.97 108.62C17.9649 107.73 17.6365 106.872 17.046 106.206C16.4555 105.54 15.643 105.112 14.76 105M12.81 114.74H11.51C11.4537 114.731 11.3963 114.731 11.34 114.74C9.98679 114.667 8.66138 114.327 7.44 113.74C5.81688 112.998 4.39882 111.871 3.3082 110.458C2.21759 109.045 1.48717 107.388 1.18 105.63C1.1 105.2 1.06 104.77 1 104.34V103C1 102.94 1 102.87 1 102.81C1.06816 101.462 1.40832 100.143 2 98.93C2.83722 97.0723 4.17886 95.4867 5.87238 94.3536C7.56591 93.2205 9.54339 92.5852 11.58 92.52C13.7483 92.3412 15.9171 92.8598 17.77 94C19.3778 94.9245 20.7236 96.2432 21.6807 97.8318C22.6377 99.4204 23.1743 101.227 23.24 103.08C23.3863 105.076 22.9559 107.072 22 108.83C21.216 110.328 20.0973 111.625 18.7306 112.621C17.364 113.616 15.7863 114.283 14.12 114.57C13.66 114.65 13.23 114.68 12.81 114.74ZM8.44 99.52C8.44199 100.248 8.66001 100.96 9.06647 101.564C9.47292 102.168 10.0495 102.638 10.7233 102.915C11.3971 103.191 12.1377 103.261 12.8514 103.117C13.5652 102.972 14.2199 102.619 14.7327 102.101C15.2456 101.584 15.5935 100.927 15.7324 100.212C15.8713 99.4971 15.795 98.757 15.5131 98.0855C15.2312 97.414 14.7564 96.8413 14.1489 96.4398C13.5413 96.0383 12.8282 95.8261 12.1 95.83C11.1257 95.8353 10.1933 96.2267 9.50723 96.9185C8.82113 97.6102 8.43734 98.5457 8.44 99.52Z" stroke="#752030" stroke-width="2" stroke-miterlimit="10"/>
<path d="M10.07 105C9.19975 104.988 8.35291 105.282 7.67687 105.83C7.00083 106.378 6.53838 107.146 6.37001 108C6.28713 108.254 6.26208 108.523 6.29669 108.788C6.33129 109.052 6.42468 109.306 6.57001 109.53C6.83717 109.85 7.14667 110.133 7.49001 110.37C8.97802 111.403 10.7661 111.914 12.5752 111.823C14.3842 111.733 16.1125 111.046 17.49 109.87C17.6654 109.711 17.8024 109.513 17.8907 109.293C17.979 109.074 18.0164 108.836 18 108.6C17.9929 107.705 17.6568 106.843 17.0557 106.179C16.4546 105.515 15.6304 105.096 14.74 105C13.88 104.92 13.02 105 12.15 105" fill="#F7F7F7"/>
<path d="M8.44 99.52C8.43604 98.7917 8.64825 98.0787 9.04976 97.4711C9.45127 96.8635 10.024 96.3888 10.6955 96.1069C11.367 95.825 12.107 95.7487 12.8219 95.8876C13.5368 96.0265 14.1944 96.3744 14.7115 96.8873C15.2285 97.4001 15.5818 98.0548 15.7265 98.7686C15.8713 99.4823 15.801 100.223 15.5246 100.897C15.2482 101.57 14.7781 102.147 14.1738 102.554C13.5695 102.96 12.8583 103.178 12.13 103.18C11.6472 103.183 11.1686 103.09 10.7217 102.907C10.2748 102.725 9.8683 102.456 9.52551 102.116C9.18273 101.776 8.91041 101.371 8.72413 100.926C8.53786 100.481 8.4413 100.003 8.44 99.52Z" fill="#F7F7F7"/>
<path d="M168.84 110.18C167.56 110.18 166.487 109.993 165.62 109.62C164.767 109.247 164.12 108.76 163.68 108.16C163.24 107.56 163.007 106.92 162.98 106.24C162.98 106.133 163.02 106.04 163.1 105.96C163.18 105.867 163.28 105.82 163.4 105.82H165.54C165.713 105.82 165.847 105.86 165.94 105.94C166.033 106.007 166.12 106.093 166.2 106.2C166.293 106.427 166.44 106.647 166.64 106.86C166.853 107.073 167.14 107.253 167.5 107.4C167.86 107.533 168.307 107.6 168.84 107.6C169.707 107.6 170.353 107.46 170.78 107.18C171.22 106.9 171.44 106.52 171.44 106.04C171.44 105.693 171.32 105.413 171.08 105.2C170.853 104.987 170.487 104.793 169.98 104.62C169.487 104.447 168.827 104.26 168 104.06C167 103.847 166.147 103.573 165.44 103.24C164.747 102.893 164.22 102.453 163.86 101.92C163.513 101.373 163.34 100.7 163.34 99.9C163.34 99.1 163.56 98.3933 164 97.78C164.44 97.1533 165.06 96.6667 165.86 96.32C166.66 95.96 167.613 95.78 168.72 95.78C169.613 95.78 170.4 95.9 171.08 96.14C171.773 96.38 172.347 96.6933 172.8 97.08C173.267 97.4667 173.62 97.88 173.86 98.32C174.1 98.76 174.227 99.1867 174.24 99.6C174.24 99.7067 174.2 99.8067 174.12 99.9C174.04 99.98 173.94 100.02 173.82 100.02H171.58C171.447 100.02 171.327 99.9933 171.22 99.94C171.113 99.8867 171.027 99.7933 170.96 99.66C170.88 99.3133 170.64 99.0133 170.24 98.76C169.853 98.4933 169.347 98.36 168.72 98.36C168.067 98.36 167.547 98.48 167.16 98.72C166.787 98.96 166.6 99.3267 166.6 99.82C166.6 100.14 166.693 100.413 166.88 100.64C167.08 100.853 167.407 101.047 167.86 101.22C168.327 101.38 168.94 101.56 169.7 101.76C170.873 102 171.827 102.287 172.56 102.62C173.293 102.953 173.833 103.387 174.18 103.92C174.527 104.44 174.7 105.1 174.7 105.9C174.7 106.793 174.447 107.56 173.94 108.2C173.447 108.84 172.76 109.333 171.88 109.68C171.013 110.013 170 110.18 168.84 110.18ZM177.347 109.98C177.2 109.98 177.08 109.933 176.987 109.84C176.894 109.747 176.847 109.627 176.847 109.48V96.48C176.847 96.3333 176.894 96.2133 176.987 96.12C177.08 96.0267 177.2 95.98 177.347 95.98H179.607C179.754 95.98 179.874 96.0267 179.967 96.12C180.06 96.2133 180.107 96.3333 180.107 96.48V109.48C180.107 109.627 180.06 109.747 179.967 109.84C179.874 109.933 179.754 109.98 179.607 109.98H177.347ZM188.098 110.18C186.818 110.18 185.744 109.993 184.878 109.62C184.024 109.247 183.378 108.76 182.938 108.16C182.498 107.56 182.264 106.92 182.238 106.24C182.238 106.133 182.278 106.04 182.358 105.96C182.438 105.867 182.538 105.82 182.658 105.82H184.798C184.971 105.82 185.104 105.86 185.198 105.94C185.291 106.007 185.378 106.093 185.458 106.2C185.551 106.427 185.698 106.647 185.898 106.86C186.111 107.073 186.398 107.253 186.758 107.4C187.118 107.533 187.564 107.6 188.098 107.6C188.964 107.6 189.611 107.46 190.038 107.18C190.478 106.9 190.698 106.52 190.698 106.04C190.698 105.693 190.578 105.413 190.338 105.2C190.111 104.987 189.744 104.793 189.238 104.62C188.744 104.447 188.084 104.26 187.258 104.06C186.258 103.847 185.404 103.573 184.698 103.24C184.004 102.893 183.478 102.453 183.118 101.92C182.771 101.373 182.598 100.7 182.598 99.9C182.598 99.1 182.818 98.3933 183.258 97.78C183.698 97.1533 184.318 96.6667 185.118 96.32C185.918 95.96 186.871 95.78 187.978 95.78C188.871 95.78 189.658 95.9 190.338 96.14C191.031 96.38 191.604 96.6933 192.058 97.08C192.524 97.4667 192.878 97.88 193.118 98.32C193.358 98.76 193.484 99.1867 193.498 99.6C193.498 99.7067 193.458 99.8067 193.378 99.9C193.298 99.98 193.198 100.02 193.078 100.02H190.838C190.704 100.02 190.584 99.9933 190.478 99.94C190.371 99.8867 190.284 99.7933 190.218 99.66C190.138 99.3133 189.898 99.0133 189.498 98.76C189.111 98.4933 188.604 98.36 187.978 98.36C187.324 98.36 186.804 98.48 186.418 98.72C186.044 98.96 185.858 99.3267 185.858 99.82C185.858 100.14 185.951 100.413 186.138 100.64C186.338 100.853 186.664 101.047 187.118 101.22C187.584 101.38 188.198 101.56 188.958 101.76C190.131 102 191.084 102.287 191.818 102.62C192.551 102.953 193.091 103.387 193.438 103.92C193.784 104.44 193.958 105.1 193.958 105.9C193.958 106.793 193.704 107.56 193.198 108.2C192.704 108.84 192.018 109.333 191.138 109.68C190.271 110.013 189.258 110.18 188.098 110.18ZM199.548 109.98C199.401 109.98 199.281 109.933 199.188 109.84C199.095 109.747 199.048 109.627 199.048 109.48V98.76H195.408C195.275 98.76 195.161 98.7133 195.068 98.62C194.975 98.5267 194.928 98.4133 194.928 98.28V96.48C194.928 96.3333 194.975 96.2133 195.068 96.12C195.161 96.0267 195.275 95.98 195.408 95.98H205.888C206.035 95.98 206.155 96.0267 206.248 96.12C206.341 96.2133 206.388 96.3333 206.388 96.48V98.28C206.388 98.4133 206.341 98.5267 206.248 98.62C206.155 98.7133 206.035 98.76 205.888 98.76H202.268V109.48C202.268 109.627 202.221 109.747 202.128 109.84C202.035 109.933 201.915 109.98 201.768 109.98H199.548ZM208.812 109.98C208.665 109.98 208.545 109.933 208.452 109.84C208.358 109.747 208.312 109.627 208.312 109.48V96.48C208.312 96.3333 208.358 96.2133 208.452 96.12C208.545 96.0267 208.665 95.98 208.812 95.98H217.872C218.018 95.98 218.138 96.0267 218.232 96.12C218.325 96.2133 218.372 96.3333 218.372 96.48V98.08C218.372 98.2133 218.325 98.3267 218.232 98.42C218.138 98.5133 218.018 98.56 217.872 98.56H211.392V101.7H217.432C217.578 101.7 217.698 101.747 217.792 101.84C217.885 101.933 217.932 102.053 217.932 102.2V103.68C217.932 103.813 217.885 103.927 217.792 104.02C217.698 104.113 217.578 104.16 217.432 104.16H211.392V107.4H218.032C218.178 107.4 218.298 107.447 218.392 107.54C218.485 107.633 218.532 107.753 218.532 107.9V109.48C218.532 109.627 218.485 109.747 218.392 109.84C218.298 109.933 218.178 109.98 218.032 109.98H208.812ZM221.409 109.98C221.276 109.98 221.156 109.933 221.049 109.84C220.956 109.747 220.909 109.627 220.909 109.48V96.48C220.909 96.3333 220.956 96.2133 221.049 96.12C221.156 96.0267 221.276 95.98 221.409 95.98H223.269C223.469 95.98 223.616 96.0333 223.709 96.14C223.816 96.2467 223.889 96.3267 223.929 96.38L227.609 103.16L231.329 96.38C231.356 96.3267 231.416 96.2467 231.509 96.14C231.616 96.0333 231.769 95.98 231.969 95.98H233.829C233.976 95.98 234.096 96.0267 234.189 96.12C234.283 96.2133 234.329 96.3333 234.329 96.48V109.48C234.329 109.627 234.283 109.747 234.189 109.84C234.096 109.933 233.976 109.98 233.829 109.98H231.789C231.656 109.98 231.543 109.933 231.449 109.84C231.356 109.747 231.309 109.627 231.309 109.48V101.4L228.769 106.16C228.703 106.28 228.616 106.387 228.509 106.48C228.403 106.573 228.263 106.62 228.089 106.62H227.149C226.976 106.62 226.836 106.573 226.729 106.48C226.623 106.387 226.536 106.28 226.469 106.16L223.929 101.4V109.48C223.929 109.627 223.883 109.747 223.789 109.84C223.696 109.933 223.583 109.98 223.449 109.98H221.409ZM236.476 109.98C236.356 109.98 236.256 109.94 236.176 109.86C236.096 109.767 236.056 109.667 236.056 109.56C236.056 109.493 236.063 109.433 236.076 109.38L240.836 96.52C240.876 96.3733 240.956 96.2467 241.076 96.14C241.196 96.0333 241.363 95.98 241.576 95.98H244.136C244.349 95.98 244.516 96.0333 244.636 96.14C244.756 96.2467 244.836 96.3733 244.876 96.52L249.636 109.38C249.649 109.433 249.656 109.493 249.656 109.56C249.656 109.667 249.616 109.767 249.536 109.86C249.456 109.94 249.356 109.98 249.236 109.98H247.156C246.956 109.98 246.809 109.933 246.716 109.84C246.623 109.747 246.563 109.66 246.536 109.58L245.676 107.34H240.036L239.176 109.58C239.149 109.66 239.089 109.747 238.996 109.84C238.903 109.933 238.756 109.98 238.556 109.98H236.476ZM240.776 104.76H244.916L242.856 99L240.776 104.76ZM255.784 109.98C255.638 109.98 255.518 109.933 255.424 109.84C255.331 109.747 255.284 109.627 255.284 109.48V96.48C255.284 96.3333 255.331 96.2133 255.424 96.12C255.518 96.0267 255.638 95.98 255.784 95.98H260.804C262.138 95.98 263.251 96.1933 264.144 96.62C265.038 97.0333 265.718 97.6467 266.184 98.46C266.664 99.26 266.918 100.253 266.944 101.44C266.958 102.027 266.964 102.54 266.964 102.98C266.964 103.42 266.958 103.927 266.944 104.5C266.904 105.74 266.658 106.767 266.204 107.58C265.751 108.393 265.084 109 264.204 109.4C263.324 109.787 262.224 109.98 260.904 109.98H255.784ZM258.464 107.4H260.804C261.471 107.4 262.018 107.3 262.444 107.1C262.871 106.9 263.184 106.587 263.384 106.16C263.598 105.72 263.711 105.153 263.724 104.46C263.738 104.073 263.744 103.727 263.744 103.42C263.758 103.113 263.758 102.807 263.744 102.5C263.744 102.193 263.738 101.853 263.724 101.48C263.698 100.48 263.438 99.7467 262.944 99.28C262.464 98.8 261.718 98.56 260.704 98.56H258.464V107.4ZM269.964 109.98C269.817 109.98 269.697 109.933 269.604 109.84C269.511 109.747 269.464 109.627 269.464 109.48V96.48C269.464 96.3333 269.511 96.2133 269.604 96.12C269.697 96.0267 269.817 95.98 269.964 95.98H279.024C279.171 95.98 279.291 96.0267 279.384 96.12C279.477 96.2133 279.524 96.3333 279.524 96.48V98.08C279.524 98.2133 279.477 98.3267 279.384 98.42C279.291 98.5133 279.171 98.56 279.024 98.56H272.544V101.7H278.584C278.731 101.7 278.851 101.747 278.944 101.84C279.037 101.933 279.084 102.053 279.084 102.2V103.68C279.084 103.813 279.037 103.927 278.944 104.02C278.851 104.113 278.731 104.16 278.584 104.16H272.544V107.4H279.184C279.331 107.4 279.451 107.447 279.544 107.54C279.637 107.633 279.684 107.753 279.684 107.9V109.48C279.684 109.627 279.637 109.747 279.544 109.84C279.451 109.933 279.331 109.98 279.184 109.98H269.964ZM292.096 110.18C290.842 110.18 289.769 109.973 288.876 109.56C287.996 109.133 287.309 108.52 286.816 107.72C286.336 106.907 286.076 105.927 286.036 104.78C286.022 104.207 286.016 103.593 286.016 102.94C286.016 102.287 286.022 101.667 286.036 101.08C286.076 99.96 286.336 99.0067 286.816 98.22C287.309 97.4333 288.002 96.8333 288.896 96.42C289.802 95.9933 290.869 95.78 292.096 95.78C293.082 95.78 293.949 95.9067 294.696 96.16C295.442 96.4133 296.069 96.7467 296.576 97.16C297.082 97.56 297.469 98 297.736 98.48C298.002 98.96 298.142 99.42 298.156 99.86C298.156 99.98 298.116 100.087 298.036 100.18C297.956 100.26 297.849 100.3 297.716 100.3H295.236C295.102 100.3 294.996 100.273 294.916 100.22C294.849 100.167 294.789 100.087 294.736 99.98C294.642 99.74 294.489 99.5 294.276 99.26C294.076 99.0067 293.802 98.7933 293.456 98.62C293.109 98.4467 292.656 98.36 292.096 98.36C291.256 98.36 290.589 98.58 290.096 99.02C289.616 99.46 289.356 100.18 289.316 101.18C289.276 102.327 289.276 103.493 289.316 104.68C289.356 105.72 289.622 106.467 290.116 106.92C290.622 107.373 291.296 107.6 292.136 107.6C292.682 107.6 293.169 107.507 293.596 107.32C294.036 107.12 294.382 106.813 294.636 106.4C294.889 105.987 295.016 105.46 295.016 104.82V104.32H292.836C292.702 104.32 292.589 104.273 292.496 104.18C292.402 104.073 292.356 103.953 292.356 103.82V102.54C292.356 102.393 292.402 102.273 292.496 102.18C292.589 102.087 292.702 102.04 292.836 102.04H297.736C297.882 102.04 298.002 102.087 298.096 102.18C298.189 102.273 298.236 102.393 298.236 102.54V104.72C298.236 105.867 297.982 106.847 297.476 107.66C296.982 108.473 296.269 109.1 295.336 109.54C294.416 109.967 293.336 110.18 292.096 110.18ZM301.175 109.98C301.028 109.98 300.908 109.933 300.815 109.84C300.722 109.747 300.675 109.627 300.675 109.48V96.48C300.675 96.3333 300.722 96.2133 300.815 96.12C300.908 96.0267 301.028 95.98 301.175 95.98H310.235C310.382 95.98 310.502 96.0267 310.595 96.12C310.688 96.2133 310.735 96.3333 310.735 96.48V98.08C310.735 98.2133 310.688 98.3267 310.595 98.42C310.502 98.5133 310.382 98.56 310.235 98.56H303.755V101.7H309.795C309.942 101.7 310.062 101.747 310.155 101.84C310.248 101.933 310.295 102.053 310.295 102.2V103.68C310.295 103.813 310.248 103.927 310.155 104.02C310.062 104.113 309.942 104.16 309.795 104.16H303.755V107.4H310.395C310.542 107.4 310.662 107.447 310.755 107.54C310.848 107.633 310.895 107.753 310.895 107.9V109.48C310.895 109.627 310.848 109.747 310.755 109.84C310.662 109.933 310.542 109.98 310.395 109.98H301.175ZM318.313 110.18C317.033 110.18 315.959 109.993 315.093 109.62C314.239 109.247 313.593 108.76 313.153 108.16C312.713 107.56 312.479 106.92 312.453 106.24C312.453 106.133 312.493 106.04 312.573 105.96C312.653 105.867 312.753 105.82 312.873 105.82H315.013C315.186 105.82 315.319 105.86 315.413 105.94C315.506 106.007 315.593 106.093 315.673 106.2C315.766 106.427 315.913 106.647 316.113 106.86C316.326 107.073 316.613 107.253 316.973 107.4C317.333 107.533 317.779 107.6 318.313 107.6C319.179 107.6 319.826 107.46 320.253 107.18C320.693 106.9 320.913 106.52 320.913 106.04C320.913 105.693 320.793 105.413 320.553 105.2C320.326 104.987 319.959 104.793 319.453 104.62C318.959 104.447 318.299 104.26 317.473 104.06C316.473 103.847 315.619 103.573 314.913 103.24C314.219 102.893 313.693 102.453 313.333 101.92C312.986 101.373 312.813 100.7 312.813 99.9C312.813 99.1 313.033 98.3933 313.473 97.78C313.913 97.1533 314.533 96.6667 315.333 96.32C316.133 95.96 317.086 95.78 318.193 95.78C319.086 95.78 319.873 95.9 320.553 96.14C321.246 96.38 321.819 96.6933 322.273 97.08C322.739 97.4667 323.093 97.88 323.333 98.32C323.573 98.76 323.699 99.1867 323.713 99.6C323.713 99.7067 323.673 99.8067 323.593 99.9C323.513 99.98 323.413 100.02 323.293 100.02H321.053C320.919 100.02 320.799 99.9933 320.693 99.94C320.586 99.8867 320.499 99.7933 320.433 99.66C320.353 99.3133 320.113 99.0133 319.713 98.76C319.326 98.4933 318.819 98.36 318.193 98.36C317.539 98.36 317.019 98.48 316.633 98.72C316.259 98.96 316.073 99.3267 316.073 99.82C316.073 100.14 316.166 100.413 316.353 100.64C316.553 100.853 316.879 101.047 317.333 101.22C317.799 101.38 318.413 101.56 319.173 101.76C320.346 102 321.299 102.287 322.033 102.62C322.766 102.953 323.306 103.387 323.653 103.92C323.999 104.44 324.173 105.1 324.173 105.9C324.173 106.793 323.919 107.56 323.413 108.2C322.919 108.84 322.233 109.333 321.353 109.68C320.486 110.013 319.473 110.18 318.313 110.18ZM329.763 109.98C329.616 109.98 329.496 109.933 329.403 109.84C329.309 109.747 329.263 109.627 329.263 109.48V98.76H325.623C325.489 98.76 325.376 98.7133 325.283 98.62C325.189 98.5267 325.143 98.4133 325.143 98.28V96.48C325.143 96.3333 325.189 96.2133 325.283 96.12C325.376 96.0267 325.489 95.98 325.623 95.98H336.103C336.249 95.98 336.369 96.0267 336.463 96.12C336.556 96.2133 336.603 96.3333 336.603 96.48V98.28C336.603 98.4133 336.556 98.5267 336.463 98.62C336.369 98.7133 336.249 98.76 336.103 98.76H332.483V109.48C332.483 109.627 332.436 109.747 332.343 109.84C332.249 109.933 332.129 109.98 331.983 109.98H329.763ZM336.261 109.98C336.141 109.98 336.041 109.94 335.961 109.86C335.881 109.767 335.841 109.667 335.841 109.56C335.841 109.493 335.848 109.433 335.861 109.38L340.621 96.52C340.661 96.3733 340.741 96.2467 340.861 96.14C340.981 96.0333 341.148 95.98 341.361 95.98H343.921C344.135 95.98 344.301 96.0333 344.421 96.14C344.541 96.2467 344.621 96.3733 344.661 96.52L349.421 109.38C349.435 109.433 349.441 109.493 349.441 109.56C349.441 109.667 349.401 109.767 349.321 109.86C349.241 109.94 349.141 109.98 349.021 109.98H346.941C346.741 109.98 346.595 109.933 346.501 109.84C346.408 109.747 346.348 109.66 346.321 109.58L345.461 107.34H339.821L338.961 109.58C338.935 109.66 338.875 109.747 338.781 109.84C338.688 109.933 338.541 109.98 338.341 109.98H336.261ZM340.561 104.76H344.701L342.641 99L340.561 104.76ZM343.801 95.08C343.455 95.08 343.161 95.02 342.921 94.9C342.681 94.78 342.468 94.6667 342.281 94.56C342.095 94.44 341.888 94.38 341.661 94.38C341.488 94.38 341.361 94.4267 341.281 94.52C341.201 94.6133 341.128 94.7133 341.061 94.82C340.995 94.9267 340.888 94.98 340.741 94.98H339.681C339.588 94.98 339.508 94.9467 339.441 94.88C339.375 94.8 339.341 94.72 339.341 94.64C339.341 94.4267 339.375 94.1867 339.441 93.92C339.521 93.6533 339.648 93.3933 339.821 93.14C339.995 92.8867 340.215 92.68 340.481 92.52C340.748 92.3467 341.075 92.26 341.461 92.26C341.821 92.26 342.115 92.32 342.341 92.44C342.581 92.56 342.795 92.68 342.981 92.8C343.181 92.92 343.395 92.98 343.621 92.98C343.795 92.98 343.915 92.9267 343.981 92.82C344.061 92.7133 344.135 92.6133 344.201 92.52C344.268 92.4133 344.375 92.36 344.521 92.36H345.581C345.701 92.36 345.788 92.4 345.841 92.48C345.908 92.5467 345.941 92.6267 345.941 92.72C345.941 92.92 345.901 93.1533 345.821 93.42C345.741 93.6867 345.615 93.9467 345.441 94.2C345.268 94.4533 345.048 94.6667 344.781 94.84C344.515 95 344.188 95.08 343.801 95.08ZM356.43 110.18C355.217 110.18 354.17 109.98 353.29 109.58C352.41 109.18 351.724 108.58 351.23 107.78C350.737 106.967 350.47 105.947 350.43 104.72C350.417 104.147 350.41 103.58 350.41 103.02C350.41 102.447 350.417 101.867 350.43 101.28C350.47 100.08 350.737 99.0733 351.23 98.26C351.737 97.4333 352.43 96.8133 353.31 96.4C354.204 95.9867 355.244 95.78 356.43 95.78C357.604 95.78 358.63 95.9867 359.51 96.4C360.404 96.8133 361.104 97.4333 361.61 98.26C362.117 99.0733 362.384 100.08 362.41 101.28C362.437 101.867 362.45 102.447 362.45 103.02C362.45 103.58 362.437 104.147 362.41 104.72C362.37 105.947 362.104 106.967 361.61 107.78C361.117 108.58 360.43 109.18 359.55 109.58C358.67 109.98 357.63 110.18 356.43 110.18ZM356.43 107.6C357.204 107.6 357.837 107.367 358.33 106.9C358.837 106.42 359.104 105.66 359.13 104.62C359.157 104.033 359.17 103.487 359.17 102.98C359.17 102.46 359.157 101.913 359.13 101.34C359.117 100.647 358.99 100.08 358.75 99.64C358.51 99.2 358.19 98.88 357.79 98.68C357.404 98.4667 356.95 98.36 356.43 98.36C355.91 98.36 355.45 98.4667 355.05 98.68C354.65 98.88 354.33 99.2 354.09 99.64C353.864 100.08 353.737 100.647 353.71 101.34C353.697 101.913 353.69 102.46 353.69 102.98C353.69 103.487 353.697 104.033 353.71 104.62C353.75 105.66 354.017 106.42 354.51 106.9C355.004 107.367 355.644 107.6 356.43 107.6ZM369.847 109.98C369.7 109.98 369.58 109.933 369.487 109.84C369.394 109.747 369.347 109.627 369.347 109.48V96.48C369.347 96.3333 369.394 96.2133 369.487 96.12C369.58 96.0267 369.7 95.98 369.847 95.98H374.867C376.2 95.98 377.314 96.1933 378.207 96.62C379.1 97.0333 379.78 97.6467 380.247 98.46C380.727 99.26 380.98 100.253 381.007 101.44C381.02 102.027 381.027 102.54 381.027 102.98C381.027 103.42 381.02 103.927 381.007 104.5C380.967 105.74 380.72 106.767 380.267 107.58C379.814 108.393 379.147 109 378.267 109.4C377.387 109.787 376.287 109.98 374.967 109.98H369.847ZM372.527 107.4H374.867C375.534 107.4 376.08 107.3 376.507 107.1C376.934 106.9 377.247 106.587 377.447 106.16C377.66 105.72 377.774 105.153 377.787 104.46C377.8 104.073 377.807 103.727 377.807 103.42C377.82 103.113 377.82 102.807 377.807 102.5C377.807 102.193 377.8 101.853 377.787 101.48C377.76 100.48 377.5 99.7467 377.007 99.28C376.527 98.8 375.78 98.56 374.767 98.56H372.527V107.4ZM384.027 109.98C383.88 109.98 383.76 109.933 383.667 109.84C383.573 109.747 383.527 109.627 383.527 109.48V96.48C383.527 96.3333 383.573 96.2133 383.667 96.12C383.76 96.0267 383.88 95.98 384.027 95.98H393.087C393.233 95.98 393.353 96.0267 393.447 96.12C393.54 96.2133 393.587 96.3333 393.587 96.48V98.08C393.587 98.2133 393.54 98.3267 393.447 98.42C393.353 98.5133 393.233 98.56 393.087 98.56H386.607V101.7H392.647C392.793 101.7 392.913 101.747 393.007 101.84C393.1 101.933 393.147 102.053 393.147 102.2V103.68C393.147 103.813 393.1 103.927 393.007 104.02C392.913 104.113 392.793 104.16 392.647 104.16H386.607V107.4H393.247C393.393 107.4 393.513 107.447 393.607 107.54C393.7 107.633 393.747 107.753 393.747 107.9V109.48C393.747 109.627 393.7 109.747 393.607 109.84C393.513 109.933 393.393 109.98 393.247 109.98H384.027Z" fill="#752030"/>
<path d="M164.311 134.7C164.18 134.7 164.073 134.658 163.989 134.575C163.906 134.491 163.864 134.384 163.864 134.253V122.624C163.864 122.493 163.906 122.386 163.989 122.302C164.073 122.219 164.18 122.177 164.311 122.177H169.195C170.161 122.177 170.996 122.326 171.7 122.624C172.415 122.922 172.97 123.376 173.363 123.984C173.769 124.58 173.972 125.326 173.972 126.22C173.972 127.127 173.769 127.878 173.363 128.474C172.97 129.059 172.415 129.494 171.7 129.78C170.996 130.067 170.161 130.21 169.195 130.21H166.798V134.253C166.798 134.384 166.756 134.491 166.673 134.575C166.589 134.658 166.482 134.7 166.351 134.7H164.311ZM166.744 127.991H169.106C169.714 127.991 170.185 127.842 170.519 127.544C170.865 127.246 171.038 126.799 171.038 126.202C171.038 125.677 170.883 125.248 170.573 124.914C170.274 124.58 169.785 124.413 169.106 124.413H166.744V127.991ZM176.244 134.7C176.112 134.7 176.005 134.658 175.922 134.575C175.838 134.491 175.796 134.384 175.796 134.253V122.624C175.796 122.493 175.838 122.386 175.922 122.302C176.005 122.219 176.112 122.177 176.244 122.177H180.984C182.475 122.177 183.65 122.523 184.509 123.215C185.367 123.894 185.797 124.878 185.797 126.166C185.797 127.037 185.588 127.765 185.171 128.349C184.753 128.933 184.193 129.369 183.489 129.655L186.012 134.128C186.047 134.199 186.065 134.265 186.065 134.324C186.065 134.42 186.029 134.509 185.958 134.593C185.886 134.664 185.797 134.7 185.69 134.7H183.704C183.489 134.7 183.328 134.646 183.221 134.539C183.113 134.42 183.036 134.312 182.988 134.217L180.806 130.12H178.641V134.253C178.641 134.384 178.599 134.491 178.516 134.575C178.432 134.658 178.325 134.7 178.194 134.7H176.244ZM178.641 127.848H180.931C181.587 127.848 182.07 127.699 182.38 127.401C182.702 127.103 182.863 126.685 182.863 126.149C182.863 125.612 182.708 125.188 182.398 124.878C182.088 124.568 181.599 124.413 180.931 124.413H178.641V127.848ZM192.912 134.879C191.827 134.879 190.89 134.7 190.103 134.342C189.316 133.984 188.702 133.448 188.261 132.732C187.819 132.005 187.581 131.092 187.545 129.995C187.533 129.482 187.527 128.975 187.527 128.474C187.527 127.961 187.533 127.443 187.545 126.918C187.581 125.844 187.819 124.944 188.261 124.216C188.714 123.477 189.334 122.922 190.121 122.553C190.92 122.183 191.85 121.998 192.912 121.998C193.961 121.998 194.88 122.183 195.667 122.553C196.466 122.922 197.092 123.477 197.545 124.216C197.999 124.944 198.237 125.844 198.261 126.918C198.285 127.443 198.297 127.961 198.297 128.474C198.297 128.975 198.285 129.482 198.261 129.995C198.225 131.092 197.987 132.005 197.545 132.732C197.104 133.448 196.49 133.984 195.703 134.342C194.916 134.7 193.985 134.879 192.912 134.879ZM192.912 132.571C193.604 132.571 194.17 132.362 194.611 131.945C195.065 131.516 195.303 130.836 195.327 129.905C195.351 129.381 195.363 128.892 195.363 128.439C195.363 127.973 195.351 127.484 195.327 126.972C195.315 126.351 195.202 125.844 194.987 125.451C194.772 125.057 194.486 124.771 194.128 124.592C193.783 124.401 193.377 124.306 192.912 124.306C192.447 124.306 192.035 124.401 191.677 124.592C191.32 124.771 191.033 125.057 190.819 125.451C190.616 125.844 190.503 126.351 190.479 126.972C190.467 127.484 190.461 127.973 190.461 128.439C190.461 128.892 190.467 129.381 190.479 129.905C190.515 130.836 190.753 131.516 191.194 131.945C191.636 132.362 192.208 132.571 192.912 132.571ZM205.544 134.879C204.423 134.879 203.463 134.694 202.664 134.324C201.877 133.943 201.263 133.394 200.822 132.678C200.392 131.951 200.16 131.074 200.124 130.049C200.112 129.536 200.106 128.987 200.106 128.403C200.106 127.818 200.112 127.264 200.124 126.739C200.16 125.737 200.392 124.884 200.822 124.181C201.263 123.477 201.883 122.94 202.682 122.571C203.493 122.189 204.447 121.998 205.544 121.998C206.427 121.998 207.202 122.111 207.87 122.338C208.538 122.565 209.099 122.863 209.552 123.233C210.005 123.59 210.351 123.984 210.589 124.413C210.828 124.843 210.953 125.254 210.965 125.648C210.965 125.755 210.929 125.85 210.858 125.934C210.786 126.005 210.691 126.041 210.572 126.041H208.353C208.234 126.041 208.139 126.017 208.067 125.97C208.007 125.922 207.954 125.85 207.906 125.755C207.822 125.54 207.685 125.326 207.494 125.111C207.316 124.884 207.071 124.694 206.761 124.538C206.451 124.383 206.045 124.306 205.544 124.306C204.793 124.306 204.197 124.503 203.755 124.896C203.326 125.29 203.094 125.934 203.058 126.828C203.022 127.854 203.022 128.898 203.058 129.959C203.094 130.889 203.332 131.557 203.773 131.963C204.227 132.368 204.829 132.571 205.58 132.571C206.069 132.571 206.505 132.488 206.886 132.321C207.28 132.142 207.59 131.867 207.817 131.498C208.043 131.128 208.156 130.657 208.156 130.084V129.637H206.206C206.087 129.637 205.986 129.595 205.902 129.512C205.819 129.416 205.777 129.309 205.777 129.19V128.045C205.777 127.914 205.819 127.806 205.902 127.723C205.986 127.639 206.087 127.598 206.206 127.598H210.589C210.721 127.598 210.828 127.639 210.911 127.723C210.995 127.806 211.037 127.914 211.037 128.045V129.995C211.037 131.021 210.81 131.897 210.357 132.625C209.916 133.352 209.278 133.913 208.443 134.306C207.62 134.688 206.654 134.879 205.544 134.879ZM213.666 134.7C213.535 134.7 213.427 134.658 213.344 134.575C213.26 134.491 213.219 134.384 213.219 134.253V122.624C213.219 122.493 213.26 122.386 213.344 122.302C213.427 122.219 213.535 122.177 213.666 122.177H218.407C219.898 122.177 221.072 122.523 221.931 123.215C222.79 123.894 223.219 124.878 223.219 126.166C223.219 127.037 223.01 127.765 222.593 128.349C222.176 128.933 221.615 129.369 220.911 129.655L223.434 134.128C223.47 134.199 223.487 134.265 223.487 134.324C223.487 134.42 223.452 134.509 223.38 134.593C223.309 134.664 223.219 134.7 223.112 134.7H221.126C220.911 134.7 220.75 134.646 220.643 134.539C220.536 134.42 220.458 134.312 220.41 134.217L218.228 130.12H216.063V134.253C216.063 134.384 216.021 134.491 215.938 134.575C215.854 134.658 215.747 134.7 215.616 134.7H213.666ZM216.063 127.848H218.353C219.009 127.848 219.492 127.699 219.802 127.401C220.124 127.103 220.285 126.685 220.285 126.149C220.285 125.612 220.13 125.188 219.82 124.878C219.51 124.568 219.021 124.413 218.353 124.413H216.063V127.848ZM224.68 134.7C224.572 134.7 224.483 134.664 224.411 134.593C224.34 134.509 224.304 134.42 224.304 134.324C224.304 134.265 224.31 134.211 224.322 134.163L228.58 122.66C228.615 122.529 228.687 122.416 228.794 122.32C228.902 122.225 229.051 122.177 229.242 122.177H231.532C231.722 122.177 231.871 122.225 231.979 122.32C232.086 122.416 232.158 122.529 232.193 122.66L236.451 134.163C236.463 134.211 236.469 134.265 236.469 134.324C236.469 134.42 236.433 134.509 236.362 134.593C236.29 134.664 236.201 134.7 236.093 134.7H234.233C234.054 134.7 233.923 134.658 233.839 134.575C233.756 134.491 233.702 134.414 233.678 134.342L232.909 132.339H227.864L227.095 134.342C227.071 134.414 227.017 134.491 226.934 134.575C226.85 134.658 226.719 134.7 226.54 134.7H224.68ZM228.526 130.031H232.229L230.387 124.878L228.526 130.031ZM238.457 134.7C238.337 134.7 238.23 134.658 238.135 134.575C238.051 134.491 238.01 134.384 238.01 134.253V122.624C238.01 122.493 238.051 122.386 238.135 122.302C238.23 122.219 238.337 122.177 238.457 122.177H240.121C240.299 122.177 240.431 122.225 240.514 122.32C240.61 122.416 240.675 122.487 240.711 122.535L244.003 128.6L247.33 122.535C247.354 122.487 247.408 122.416 247.491 122.32C247.587 122.225 247.724 122.177 247.903 122.177H249.566C249.698 122.177 249.805 122.219 249.888 122.302C249.972 122.386 250.014 122.493 250.014 122.624V134.253C250.014 134.384 249.972 134.491 249.888 134.575C249.805 134.658 249.698 134.7 249.566 134.7H247.742C247.622 134.7 247.521 134.658 247.438 134.575C247.354 134.491 247.312 134.384 247.312 134.253V127.025L245.04 131.283C244.981 131.39 244.903 131.486 244.808 131.569C244.712 131.653 244.587 131.694 244.432 131.694H243.591C243.436 131.694 243.311 131.653 243.216 131.569C243.12 131.486 243.043 131.39 242.983 131.283L240.711 127.025V134.253C240.711 134.384 240.669 134.491 240.586 134.575C240.502 134.658 240.401 134.7 240.282 134.7H238.457ZM251.934 134.7C251.827 134.7 251.737 134.664 251.666 134.593C251.594 134.509 251.558 134.42 251.558 134.324C251.558 134.265 251.564 134.211 251.576 134.163L255.834 122.66C255.87 122.529 255.941 122.416 256.049 122.32C256.156 122.225 256.305 122.177 256.496 122.177H258.786C258.977 122.177 259.126 122.225 259.233 122.32C259.34 122.416 259.412 122.529 259.448 122.66L263.706 134.163C263.717 134.211 263.723 134.265 263.723 134.324C263.723 134.42 263.688 134.509 263.616 134.593C263.545 134.664 263.455 134.7 263.348 134.7H261.487C261.308 134.7 261.177 134.658 261.094 134.575C261.01 134.491 260.956 134.414 260.933 134.342L260.163 132.339H255.118L254.349 134.342C254.325 134.414 254.272 134.491 254.188 134.575C254.105 134.658 253.973 134.7 253.795 134.7H251.934ZM255.78 130.031H259.484L257.641 124.878L255.78 130.031ZM269.58 134.879C268.435 134.879 267.475 134.712 266.7 134.378C265.936 134.044 265.358 133.609 264.964 133.072C264.571 132.535 264.362 131.963 264.338 131.355C264.338 131.259 264.374 131.176 264.445 131.104C264.517 131.021 264.606 130.979 264.714 130.979H266.628C266.783 130.979 266.902 131.015 266.986 131.086C267.069 131.146 267.147 131.223 267.218 131.319C267.302 131.522 267.433 131.718 267.612 131.909C267.803 132.1 268.059 132.261 268.381 132.392C268.703 132.511 269.103 132.571 269.58 132.571C270.355 132.571 270.934 132.446 271.315 132.195C271.709 131.945 271.906 131.605 271.906 131.176C271.906 130.866 271.798 130.615 271.584 130.424C271.381 130.233 271.053 130.061 270.6 129.905C270.158 129.75 269.568 129.583 268.829 129.405C267.934 129.214 267.171 128.969 266.539 128.671C265.918 128.361 265.447 127.967 265.125 127.49C264.815 127.001 264.66 126.399 264.66 125.683C264.66 124.968 264.857 124.336 265.251 123.787C265.644 123.227 266.199 122.791 266.914 122.481C267.63 122.159 268.483 121.998 269.473 121.998C270.272 121.998 270.975 122.105 271.584 122.32C272.204 122.535 272.717 122.815 273.122 123.161C273.54 123.507 273.856 123.877 274.07 124.27C274.285 124.664 274.398 125.045 274.41 125.415C274.41 125.511 274.374 125.6 274.303 125.683C274.231 125.755 274.142 125.791 274.035 125.791H272.031C271.912 125.791 271.804 125.767 271.709 125.719C271.613 125.672 271.536 125.588 271.476 125.469C271.405 125.159 271.19 124.89 270.832 124.664C270.486 124.425 270.033 124.306 269.473 124.306C268.888 124.306 268.423 124.413 268.077 124.628C267.743 124.843 267.576 125.171 267.576 125.612C267.576 125.898 267.66 126.143 267.827 126.345C268.006 126.536 268.298 126.709 268.703 126.864C269.121 127.007 269.669 127.168 270.349 127.347C271.399 127.562 272.251 127.818 272.907 128.116C273.563 128.415 274.046 128.802 274.357 129.279C274.667 129.744 274.822 130.335 274.822 131.05C274.822 131.85 274.595 132.535 274.142 133.108C273.701 133.68 273.086 134.122 272.299 134.432C271.524 134.73 270.618 134.879 269.58 134.879ZM279.503 134.7C279.395 134.7 279.306 134.664 279.234 134.593C279.163 134.509 279.127 134.42 279.127 134.324C279.127 134.265 279.133 134.211 279.145 134.163L283.403 122.66C283.439 122.529 283.51 122.416 283.617 122.32C283.725 122.225 283.874 122.177 284.065 122.177H286.355C286.545 122.177 286.694 122.225 286.802 122.32C286.909 122.416 286.981 122.529 287.017 122.66L291.274 134.163C291.286 134.211 291.292 134.265 291.292 134.324C291.292 134.42 291.256 134.509 291.185 134.593C291.113 134.664 291.024 134.7 290.917 134.7H289.056C288.877 134.7 288.746 134.658 288.662 134.575C288.579 134.491 288.525 134.414 288.501 134.342L287.732 132.339H282.687L281.918 134.342C281.894 134.414 281.84 134.491 281.757 134.575C281.673 134.658 281.542 134.7 281.363 134.7H279.503ZM283.349 130.031H287.052L285.21 124.878L283.349 130.031ZM297.544 134.879C296.423 134.879 295.469 134.694 294.682 134.324C293.906 133.943 293.304 133.394 292.875 132.678C292.445 131.951 292.207 131.068 292.159 130.031C292.147 129.542 292.141 129.017 292.141 128.456C292.141 127.896 292.147 127.359 292.159 126.846C292.207 125.821 292.445 124.95 292.875 124.234C293.316 123.507 293.93 122.952 294.717 122.571C295.504 122.189 296.447 121.998 297.544 121.998C298.343 121.998 299.071 122.099 299.727 122.302C300.382 122.505 300.949 122.797 301.426 123.179C301.903 123.561 302.273 124.008 302.535 124.521C302.798 125.033 302.941 125.606 302.965 126.238C302.965 126.345 302.923 126.435 302.839 126.506C302.768 126.578 302.678 126.614 302.571 126.614H300.532C300.388 126.614 300.275 126.578 300.192 126.506C300.108 126.435 300.043 126.316 299.995 126.149C299.816 125.445 299.518 124.962 299.1 124.7C298.683 124.437 298.164 124.306 297.544 124.306C296.804 124.306 296.22 124.509 295.791 124.914C295.361 125.32 295.129 125.994 295.093 126.936C295.057 127.914 295.057 128.916 295.093 129.941C295.129 130.883 295.361 131.557 295.791 131.963C296.22 132.368 296.804 132.571 297.544 132.571C298.164 132.571 298.683 132.44 299.1 132.178C299.53 131.903 299.828 131.42 299.995 130.728C300.043 130.55 300.108 130.43 300.192 130.371C300.275 130.299 300.388 130.263 300.532 130.263H302.571C302.678 130.263 302.768 130.299 302.839 130.371C302.923 130.442 302.965 130.532 302.965 130.639C302.941 131.271 302.798 131.844 302.535 132.356C302.273 132.869 301.903 133.317 301.426 133.698C300.949 134.08 300.382 134.372 299.727 134.575C299.071 134.778 298.343 134.879 297.544 134.879ZM304.084 134.7C303.977 134.7 303.887 134.664 303.816 134.593C303.744 134.509 303.708 134.42 303.708 134.324C303.708 134.265 303.714 134.211 303.726 134.163L307.984 122.66C308.02 122.529 308.091 122.416 308.199 122.32C308.306 122.225 308.455 122.177 308.646 122.177H310.936C311.127 122.177 311.276 122.225 311.383 122.32C311.49 122.416 311.562 122.529 311.598 122.66L315.856 134.163C315.868 134.211 315.874 134.265 315.874 134.324C315.874 134.42 315.838 134.509 315.766 134.593C315.695 134.664 315.605 134.7 315.498 134.7H313.637C313.458 134.7 313.327 134.658 313.244 134.575C313.16 134.491 313.107 134.414 313.083 134.342L312.313 132.339H307.268L306.499 134.342C306.475 134.414 306.422 134.491 306.338 134.575C306.255 134.658 306.123 134.7 305.945 134.7H304.084ZM307.93 130.031H311.634L309.791 124.878L307.93 130.031ZM317.861 134.7C317.73 134.7 317.623 134.658 317.539 134.575C317.456 134.491 317.414 134.384 317.414 134.253V122.624C317.414 122.493 317.456 122.386 317.539 122.302C317.623 122.219 317.73 122.177 317.861 122.177H322.351C323.544 122.177 324.54 122.368 325.339 122.749C326.138 123.119 326.746 123.668 327.164 124.395C327.593 125.111 327.82 126 327.844 127.061C327.856 127.586 327.862 128.045 327.862 128.439C327.862 128.832 327.856 129.285 327.844 129.798C327.808 130.907 327.587 131.826 327.182 132.553C326.776 133.281 326.18 133.823 325.393 134.181C324.606 134.527 323.622 134.7 322.441 134.7H317.861ZM320.258 132.392H322.351C322.948 132.392 323.437 132.303 323.818 132.124C324.2 131.945 324.48 131.665 324.659 131.283C324.85 130.889 324.952 130.383 324.963 129.762C324.975 129.416 324.981 129.106 324.981 128.832C324.993 128.558 324.993 128.283 324.981 128.009C324.981 127.735 324.975 127.431 324.963 127.097C324.94 126.202 324.707 125.546 324.266 125.129C323.836 124.7 323.168 124.485 322.262 124.485H320.258V132.392ZM330.545 134.7C330.414 134.7 330.306 134.658 330.223 134.575C330.139 134.491 330.098 134.384 330.098 134.253V122.624C330.098 122.493 330.139 122.386 330.223 122.302C330.306 122.219 330.414 122.177 330.545 122.177H338.649C338.78 122.177 338.888 122.219 338.971 122.302C339.055 122.386 339.096 122.493 339.096 122.624V124.055C339.096 124.175 339.055 124.276 338.971 124.36C338.888 124.443 338.78 124.485 338.649 124.485H332.853V127.294H338.255C338.387 127.294 338.494 127.335 338.577 127.419C338.661 127.502 338.703 127.61 338.703 127.741V129.065C338.703 129.184 338.661 129.285 338.577 129.369C338.494 129.452 338.387 129.494 338.255 129.494H332.853V132.392H338.792C338.923 132.392 339.031 132.434 339.114 132.517C339.198 132.601 339.239 132.708 339.239 132.839V134.253C339.239 134.384 339.198 134.491 339.114 134.575C339.031 134.658 338.923 134.7 338.792 134.7H330.545ZM331.493 121.283C331.314 121.283 331.225 121.199 331.225 121.032C331.225 120.937 331.272 120.841 331.368 120.746L333.157 118.885C333.288 118.754 333.395 118.671 333.479 118.635C333.574 118.599 333.676 118.581 333.783 118.581H335.053C335.172 118.581 335.274 118.599 335.357 118.635C335.453 118.671 335.56 118.754 335.679 118.885L337.45 120.746C337.558 120.841 337.611 120.937 337.611 121.032C337.611 121.199 337.522 121.283 337.343 121.283H336.538C336.443 121.283 336.341 121.277 336.234 121.265C336.138 121.241 336.049 121.205 335.966 121.157L334.409 120.245L332.871 121.157C332.787 121.205 332.692 121.241 332.584 121.265C332.489 121.277 332.393 121.283 332.298 121.283H331.493ZM341.813 134.7C341.694 134.7 341.587 134.658 341.491 134.575C341.408 134.491 341.366 134.384 341.366 134.253V122.624C341.366 122.493 341.408 122.386 341.491 122.302C341.587 122.219 341.694 122.177 341.813 122.177H343.477C343.656 122.177 343.787 122.225 343.871 122.32C343.966 122.416 344.032 122.487 344.068 122.535L347.359 128.6L350.687 122.535C350.711 122.487 350.764 122.416 350.848 122.32C350.943 122.225 351.08 122.177 351.259 122.177H352.923C353.054 122.177 353.162 122.219 353.245 122.302C353.329 122.386 353.37 122.493 353.37 122.624V134.253C353.37 134.384 353.329 134.491 353.245 134.575C353.162 134.658 353.054 134.7 352.923 134.7H351.098C350.979 134.7 350.878 134.658 350.794 134.575C350.711 134.491 350.669 134.384 350.669 134.253V127.025L348.397 131.283C348.337 131.39 348.26 131.486 348.164 131.569C348.069 131.653 347.944 131.694 347.789 131.694H346.948C346.793 131.694 346.668 131.653 346.572 131.569C346.477 131.486 346.399 131.39 346.34 131.283L344.068 127.025V134.253C344.068 134.384 344.026 134.491 343.942 134.575C343.859 134.658 343.757 134.7 343.638 134.7H341.813ZM356.471 134.7C356.34 134.7 356.233 134.658 356.149 134.575C356.066 134.491 356.024 134.384 356.024 134.253V122.624C356.024 122.493 356.066 122.386 356.149 122.302C356.233 122.219 356.34 122.177 356.471 122.177H358.493C358.624 122.177 358.731 122.219 358.815 122.302C358.898 122.386 358.94 122.493 358.94 122.624V134.253C358.94 134.384 358.898 134.491 358.815 134.575C358.731 134.658 358.624 134.7 358.493 134.7H356.471ZM366.553 134.879C365.432 134.879 364.478 134.694 363.691 134.324C362.916 133.943 362.313 133.394 361.884 132.678C361.455 131.951 361.216 131.068 361.168 130.031C361.156 129.542 361.15 129.017 361.15 128.456C361.15 127.896 361.156 127.359 361.168 126.846C361.216 125.821 361.455 124.95 361.884 124.234C362.325 123.507 362.939 122.952 363.727 122.571C364.514 122.189 365.456 121.998 366.553 121.998C367.352 121.998 368.08 122.099 368.736 122.302C369.392 122.505 369.958 122.797 370.435 123.179C370.912 123.561 371.282 124.008 371.545 124.521C371.807 125.033 371.95 125.606 371.974 126.238C371.974 126.345 371.932 126.435 371.849 126.506C371.777 126.578 371.688 126.614 371.58 126.614H369.541C369.398 126.614 369.284 126.578 369.201 126.506C369.117 126.435 369.052 126.316 369.004 126.149C368.825 125.445 368.527 124.962 368.11 124.7C367.692 124.437 367.173 124.306 366.553 124.306C365.814 124.306 365.229 124.509 364.8 124.914C364.371 125.32 364.138 125.994 364.102 126.936C364.067 127.914 364.067 128.916 364.102 129.941C364.138 130.883 364.371 131.557 364.8 131.963C365.229 132.368 365.814 132.571 366.553 132.571C367.173 132.571 367.692 132.44 368.11 132.178C368.539 131.903 368.837 131.42 369.004 130.728C369.052 130.55 369.117 130.43 369.201 130.371C369.284 130.299 369.398 130.263 369.541 130.263H371.58C371.688 130.263 371.777 130.299 371.849 130.371C371.932 130.442 371.974 130.532 371.974 130.639C371.95 131.271 371.807 131.844 371.545 132.356C371.282 132.869 370.912 133.317 370.435 133.698C369.958 134.08 369.392 134.372 368.736 134.575C368.08 134.778 367.352 134.879 366.553 134.879ZM378.957 134.879C377.872 134.879 376.936 134.7 376.149 134.342C375.362 133.984 374.747 133.448 374.306 132.732C373.865 132.005 373.626 131.092 373.59 129.995C373.578 129.482 373.573 128.975 373.573 128.474C373.573 127.961 373.578 127.443 373.59 126.918C373.626 125.844 373.865 124.944 374.306 124.216C374.759 123.477 375.379 122.922 376.167 122.553C376.966 122.183 377.896 121.998 378.957 121.998C380.007 121.998 380.925 122.183 381.712 122.553C382.512 122.922 383.138 123.477 383.591 124.216C384.044 124.944 384.283 125.844 384.307 126.918C384.33 127.443 384.342 127.961 384.342 128.474C384.342 128.975 384.33 129.482 384.307 129.995C384.271 131.092 384.032 132.005 383.591 132.732C383.15 133.448 382.535 133.984 381.748 134.342C380.961 134.7 380.031 134.879 378.957 134.879ZM378.957 132.571C379.649 132.571 380.216 132.362 380.657 131.945C381.11 131.516 381.349 130.836 381.373 129.905C381.396 129.381 381.408 128.892 381.408 128.439C381.408 127.973 381.396 127.484 381.373 126.972C381.361 126.351 381.247 125.844 381.033 125.451C380.818 125.057 380.532 124.771 380.174 124.592C379.828 124.401 379.423 124.306 378.957 124.306C378.492 124.306 378.081 124.401 377.723 124.592C377.365 124.771 377.079 125.057 376.864 125.451C376.662 125.844 376.548 126.351 376.524 126.972C376.512 127.484 376.506 127.973 376.506 128.439C376.506 128.892 376.512 129.381 376.524 129.905C376.56 130.836 376.799 131.516 377.24 131.945C377.681 132.362 378.254 132.571 378.957 132.571ZM391.071 134.879C389.926 134.879 388.966 134.712 388.191 134.378C387.428 134.044 386.849 133.609 386.456 133.072C386.062 132.535 385.853 131.963 385.829 131.355C385.829 131.259 385.865 131.176 385.937 131.104C386.008 131.021 386.098 130.979 386.205 130.979H388.119C388.274 130.979 388.394 131.015 388.477 131.086C388.561 131.146 388.638 131.223 388.71 131.319C388.793 131.522 388.924 131.718 389.103 131.909C389.294 132.1 389.551 132.261 389.873 132.392C390.195 132.511 390.594 132.571 391.071 132.571C391.846 132.571 392.425 132.446 392.807 132.195C393.2 131.945 393.397 131.605 393.397 131.176C393.397 130.866 393.29 130.615 393.075 130.424C392.872 130.233 392.544 130.061 392.091 129.905C391.65 129.75 391.059 129.583 390.32 129.405C389.425 129.214 388.662 128.969 388.03 128.671C387.41 128.361 386.939 127.967 386.617 127.49C386.306 127.001 386.151 126.399 386.151 125.683C386.151 124.968 386.348 124.336 386.742 123.787C387.135 123.227 387.69 122.791 388.406 122.481C389.121 122.159 389.974 121.998 390.964 121.998C391.763 121.998 392.467 122.105 393.075 122.32C393.695 122.535 394.208 122.815 394.613 123.161C395.031 123.507 395.347 123.877 395.562 124.27C395.776 124.664 395.89 125.045 395.901 125.415C395.901 125.511 395.866 125.6 395.794 125.683C395.723 125.755 395.633 125.791 395.526 125.791H393.522C393.403 125.791 393.296 125.767 393.2 125.719C393.105 125.672 393.027 125.588 392.968 125.469C392.896 125.159 392.681 124.89 392.323 124.664C391.978 124.425 391.524 124.306 390.964 124.306C390.379 124.306 389.914 124.413 389.568 124.628C389.234 124.843 389.068 125.171 389.068 125.612C389.068 125.898 389.151 126.143 389.318 126.345C389.497 126.536 389.789 126.709 390.195 126.864C390.612 127.007 391.161 127.168 391.84 127.347C392.89 127.562 393.743 127.818 394.399 128.116C395.055 128.415 395.538 128.802 395.848 129.279C396.158 129.744 396.313 130.335 396.313 131.05C396.313 131.85 396.086 132.535 395.633 133.108C395.192 133.68 394.578 134.122 393.79 134.432C393.015 134.73 392.109 134.879 391.071 134.879Z" fill="#752030"/>
</svg>
