<svg width="40" height="42" viewBox="0 0 40 42" fill="none" xmlns="http://www.w3.org/2000/svg">
<path id="Vector" d="M39.6995 19.1964H21.3257V24.6665H34.3697C33.7085 32.3005 27.3568 35.5666 21.3457 35.5666C13.6716 35.5666 6.93923 29.5154 6.93923 20.9998C6.93923 12.7846 13.351 6.43295 21.3658 6.43295C27.5572 6.43295 31.1838 10.3802 31.1838 10.3802L34.9908 6.41292C34.9908 6.41292 30.1019 0.962891 21.1654 0.962891C9.78447 0.962891 0.988281 10.5806 0.988281 20.9998C0.988281 31.1184 9.26351 41.0366 21.466 41.0366C32.1857 41.0366 40.0001 33.6831 40.0001 22.8231C40.0001 20.5189 39.6995 19.1964 39.6995 19.1964Z" fill="#E8ECF0"/>
</svg>
