<svg width="41" height="41" viewBox="0 0 41 41" fill="none" xmlns="http://www.w3.org/2000/svg">
<path id="Vector" d="M20.8776 0.962891C9.85735 0.962891 0.840759 9.95944 0.840759 21.0398C0.840759 31.0583 8.17425 39.3736 17.7519 40.8763V26.8505H12.6625V21.0398H17.7519V16.6117C17.7519 11.5824 20.7374 8.81734 25.3258 8.81734C27.5098 8.81734 29.794 9.19804 29.794 9.19804V14.1471H27.2694C24.7848 14.1471 24.0034 15.69 24.0034 17.2729V21.0398H29.5736L28.672 26.8505H24.0034V40.8763C28.7249 40.1306 33.0244 37.7216 36.1255 34.084C39.2267 30.4463 40.9252 25.8199 40.9145 21.0398C40.9145 9.95944 31.8979 0.962891 20.8776 0.962891Z" fill="#E8ECF0"/>
</svg>
