<svg width="41" height="42" viewBox="0 0 41 42" fill="none" xmlns="http://www.w3.org/2000/svg">
<path id="Vector" d="M12.5359 0.962891H29.3669C35.7787 0.962891 40.9883 6.17248 40.9883 12.5843V29.4152C40.9883 32.4974 39.7639 35.4534 37.5845 37.6328C35.405 39.8122 32.4491 41.0366 29.3669 41.0366H12.5359C6.12414 41.0366 0.914551 35.827 0.914551 29.4152V12.5843C0.914551 9.50209 2.13894 6.54615 4.31837 4.36671C6.49781 2.18728 9.45375 0.962891 12.5359 0.962891ZM12.1352 4.97026C10.2221 4.97026 8.38739 5.73023 7.03464 7.08298C5.68189 8.43573 4.92192 10.2705 4.92192 12.1835V29.816C4.92192 33.8033 8.14786 37.0292 12.1352 37.0292H29.7676C31.6807 37.0292 33.5154 36.2693 34.8682 34.9165C36.2209 33.5638 36.9809 31.7291 36.9809 29.816V12.1835C36.9809 8.1962 33.755 4.97026 29.7676 4.97026H12.1352ZM31.4708 7.97579C32.135 7.97579 32.7721 8.23967 33.2418 8.70938C33.7115 9.17908 33.9754 9.81614 33.9754 10.4804C33.9754 11.1447 33.7115 11.7817 33.2418 12.2514C32.7721 12.7211 32.135 12.985 31.4708 12.985C30.8065 12.985 30.1694 12.7211 29.6997 12.2514C29.23 11.7817 28.9662 11.1447 28.9662 10.4804C28.9662 9.81614 29.23 9.17908 29.6997 8.70938C30.1694 8.23967 30.8065 7.97579 31.4708 7.97579ZM20.9514 10.9813C23.6085 10.9813 26.1567 12.0368 28.0355 13.9157C29.9143 15.7945 30.9698 18.3427 30.9698 20.9998C30.9698 23.6568 29.9143 26.205 28.0355 28.0839C26.1567 29.9627 23.6085 31.0182 20.9514 31.0182C18.2944 31.0182 15.7461 29.9627 13.8673 28.0839C11.9885 26.205 10.933 23.6568 10.933 20.9998C10.933 18.3427 11.9885 15.7945 13.8673 13.9157C15.7461 12.0368 18.2944 10.9813 20.9514 10.9813ZM20.9514 14.9887C19.3572 14.9887 17.8282 15.622 16.701 16.7493C15.5737 17.8766 14.9404 19.4055 14.9404 20.9998C14.9404 22.594 15.5737 24.1229 16.701 25.2502C17.8282 26.3775 19.3572 27.0108 20.9514 27.0108C22.5456 27.0108 24.0746 26.3775 25.2019 25.2502C26.3292 24.1229 26.9625 22.594 26.9625 20.9998C26.9625 19.4055 26.3292 17.8766 25.2019 16.7493C24.0746 15.622 22.5456 14.9887 20.9514 14.9887Z" fill="#E8ECF0"/>
</svg>
