<svg width="31" height="31" viewBox="0 0 31 31" fill="none" xmlns="http://www.w3.org/2000/svg">
<g id="magnify">
<path id="Vector" d="M12.375 4.25C14.5299 4.25 16.5965 5.10602 18.1202 6.62976C19.644 8.15349 20.5 10.2201 20.5 12.375C20.5 14.3875 19.7625 16.2375 18.55 17.6625L18.8875 18H19.875L26.125 24.25L24.25 26.125L18 19.875V18.8875L17.6625 18.55C16.2375 19.7625 14.3875 20.5 12.375 20.5C10.2201 20.5 8.15349 19.644 6.62976 18.1202C5.10602 16.5965 4.25 14.5299 4.25 12.375C4.25 10.2201 5.10602 8.15349 6.62976 6.62976C8.15349 5.10602 10.2201 4.25 12.375 4.25ZM12.375 6.75C9.25 6.75 6.75 9.25 6.75 12.375C6.75 15.5 9.25 18 12.375 18C15.5 18 18 15.5 18 12.375C18 9.25 15.5 6.75 12.375 6.75Z" fill="#8C111A"/>
</g>
</svg>
