<svg width="27" height="24" viewBox="0 0 27 24" fill="none" xmlns="http://www.w3.org/2000/svg">
<path d="M16.75 5C13.9875 5 11.75 7.2375 11.75 10V20H3C2.33696 20 1.70107 19.7366 1.23223 19.2678C0.763392 18.7989 0.5 18.163 0.5 17.5V2.5C0.5 1.1125 1.6125 0 3 0H10.5L13 2.5H23C23.663 2.5 24.2989 2.76339 24.7678 3.23223C25.2366 3.70107 25.5 4.33696 25.5 5V7.7125L23.5125 5.7375L22.7875 5H16.75ZM26.75 12.5V21.25C26.75 22.6375 25.6375 23.75 24.25 23.75H16.75C16.087 23.75 15.4511 23.4866 14.9822 23.0178C14.5134 22.5489 14.25 21.913 14.25 21.25V10C14.25 8.625 15.375 7.5 16.75 7.5H21.75L26.75 12.5ZM24.25 13.5375L20.7125 10H20.5V13.75H24.25V13.5375Z" fill="#A95260"/>
</svg>
