<svg width="25" height="26" viewBox="0 0 25 26" fill="none" xmlns="http://www.w3.org/2000/svg">
<g id="folder-file">
<path id="Vector" d="M15.3523 8.97537C13.1284 8.97537 11.3271 10.7766 11.3271 13.0005V21.0509H4.28309C3.17617 21.0509 2.27051 20.1553 2.27051 19.0383V6.96278C2.27051 5.8458 3.16611 4.9502 4.28309 4.9502H10.3209L12.3334 6.96278H20.3838C21.4907 6.96278 22.3964 7.85838 22.3964 8.97537V11.159L20.7964 9.56908L20.2127 8.97537H15.3523ZM23.4027 15.0131V22.0572C23.4027 23.1742 22.5071 24.0698 21.3901 24.0698H15.3523C14.2454 24.0698 13.3397 23.1742 13.3397 22.0572V13.0005C13.3397 11.8936 14.2454 10.988 15.3523 10.988H19.3775L23.4027 15.0131ZM21.3901 15.8484L18.5423 13.0005H18.3712V16.0194H21.3901V15.8484Z" fill="#5C4F51"/>
</g>
</svg>
