<svg width="25" height="25" viewBox="0 0 25 25" fill="none" xmlns="http://www.w3.org/2000/svg">
<g id="card-account-details" clip-path="url(#clip0_601_1553)">
<path id="Vector" d="M2.66322 3.44336H22.7891C23.8457 3.44336 24.8017 4.39934 24.8017 5.45595V19.5441C24.8017 20.6007 23.8457 21.5566 22.7891 21.5566H2.66322C1.60661 21.5566 0.650635 20.6007 0.650635 19.5441V5.45595C0.650635 4.39934 1.60661 3.44336 2.66322 3.44336ZM14.7387 6.46224V7.46853H22.7891V6.46224H14.7387ZM14.7387 8.47483V9.48112H22.2859H22.7891V8.47483H14.7387ZM14.7387 10.4874V11.4937H21.7828V10.4874H14.7387ZM8.70098 14.422C6.6884 14.422 2.66322 15.5189 2.66322 17.5315V18.5378H14.7387V17.5315C14.7387 15.5189 10.7136 14.422 8.70098 14.422ZM8.70098 6.46224C7.90033 6.46224 7.13246 6.7803 6.56631 7.34645C6.00016 7.9126 5.6821 8.68046 5.6821 9.48112C5.6821 10.2818 6.00016 11.0496 6.56631 11.6158C7.13246 12.1819 7.90033 12.5 8.70098 12.5C9.50164 12.5 10.2695 12.1819 10.8357 11.6158C11.4018 11.0496 11.7199 10.2818 11.7199 9.48112C11.7199 8.68046 11.4018 7.9126 10.8357 7.34645C10.2695 6.7803 9.50164 6.46224 8.70098 6.46224Z" fill="#5C4F51"/>
</g>
<defs>
<clipPath id="clip0_601_1553">
<rect width="24.151" height="24.151" fill="white" transform="translate(0.650635 0.424805)"/>
</clipPath>
</defs>
</svg>
