<svg width="49" height="49" viewBox="0 0 49 49" fill="none" xmlns="http://www.w3.org/2000/svg">
<g id="account-circle">
<path id="Vector" d="M24.5 39.2002C19.3958 39.2002 14.8837 36.5868 12.25 32.6668C12.3112 28.5835 20.4166 26.3377 24.5 26.3377C28.5833 26.3377 36.6887 28.5835 36.75 32.6668C34.1162 36.5868 29.6041 39.2002 24.5 39.2002ZM24.5 10.2085C26.1244 10.2085 27.6824 10.8538 28.831 12.0025C29.9797 13.1511 30.625 14.709 30.625 16.3335C30.625 17.9579 29.9797 19.5159 28.831 20.6645C27.6824 21.8132 26.1244 22.4585 24.5 22.4585C22.8755 22.4585 21.3176 21.8132 20.169 20.6645C19.0203 19.5159 18.375 17.9579 18.375 16.3335C18.375 14.709 19.0203 13.1511 20.169 12.0025C21.3176 10.8538 22.8755 10.2085 24.5 10.2085ZM24.5 4.0835C21.8188 4.0835 19.1639 4.61159 16.6869 5.63762C14.2098 6.66366 11.9591 8.16754 10.0632 10.0634C6.23435 13.8923 4.08331 19.0853 4.08331 24.5002C4.08331 29.915 6.23435 35.1081 10.0632 38.9369C11.9591 40.8328 14.2098 42.3367 16.6869 43.3627C19.1639 44.3887 21.8188 44.9168 24.5 44.9168C29.9148 44.9168 35.1079 42.7658 38.9367 38.9369C42.7656 35.1081 44.9166 29.915 44.9166 24.5002C44.9166 13.2097 35.7291 4.0835 24.5 4.0835Z" fill="#A8A8A8"/>
</g>
</svg>
