<svg xmlns="http://www.w3.org/2000/svg" viewBox="0 0 450.59 157.98"><defs><style>.cls-1{font-size:98.69px;letter-spacing:0.06em;}.cls-1,.cls-4{fill:#07253f;font-family:Rubik-SemiBold, Rubik;font-weight:600;}.cls-2{letter-spacing:0.01em;}.cls-3{letter-spacing:0.03em;}.cls-4{font-size:8.85px;letter-spacing:0.06em;}.cls-5{letter-spacing:0.05em;}.cls-6{letter-spacing:0.03em;}.cls-7{letter-spacing:0.05em;}.cls-8{letter-spacing:0.05em;}.cls-9{letter-spacing:0.06em;}.cls-10{letter-spacing:0.05em;}.cls-11{letter-spacing:0.04em;}.cls-12{letter-spacing:0.05em;}.cls-13{fill:none;stroke:#163c65;stroke-linecap:round;stroke-linejoin:round;stroke-width:3px;stroke-dasharray:0 10.96;}.cls-14{fill:#163c65;stroke:#07253f;stroke-miterlimit:10;stroke-width:2px;}.cls-15{fill:#f7f7f7;}.cls-16{fill:#fff;}</style></defs><g id="Camada_2" data-name="Camada 2"><g id="Camada_1-2" data-name="Camada 1"><text class="cls-1" transform="translate(164.86 96.27)">SG<tspan class="cls-2" x="145.67" y="0">P</tspan><tspan class="cls-3" x="212.59" y="0">A</tspan></text><text class="cls-4" transform="translate(164.86 122.76)">SI<tspan class="cls-5" x="9.53" y="0">S</tspan><tspan x="15.74" y="0">TEM</tspan><tspan class="cls-6" x="35.53" y="0">A</tspan><tspan x="42.04" y="0" xml:space="preserve"> DE GERENCIAMEN</tspan><tspan class="cls-7" x="129.38" y="0">T</tspan><tspan x="135.24" y="0">O DE P</tspan><tspan class="cls-8" x="166.15" y="0">R</tspan><tspan class="cls-9" x="172.66" y="0">OGRAM</tspan><tspan class="cls-10" x="207.19" y="0">A</tspan><tspan x="213.83" y="0">S</tspan><tspan class="cls-6" x="220.1" y="0"> </tspan><tspan class="cls-11" x="222.34" y="0">A</tspan><tspan class="cls-12" x="228.94" y="0">C</tspan><tspan x="235.5" y="0">ADÊMICOS</tspan></text><text/><circle class="cls-13" cx="62.87" cy="68.84" r="55.85"/><path class="cls-14" d="M46.8,23.25H45.5a1,1,0,0,0-.17,0,10.38,10.38,0,0,1-3.9-1,11,11,0,0,1-6.25-8.12c-.09-.42-.13-.85-.18-1.28v-1.3a1.62,1.62,0,0,0,0-.19,10,10,0,0,1,1-3.88A10.92,10.92,0,0,1,45.63,1a10.31,10.31,0,0,1,6.14,1.53,10.93,10.93,0,0,1,5.46,9.08A10.46,10.46,0,0,1,56,17.34a11,11,0,0,1-7.88,5.73C47.65,23.15,47.23,23.19,46.8,23.25Zm2-9.74-2.67,0H44a3.71,3.71,0,0,0-3.7,3,1.76,1.76,0,0,0,.2,1.52,4.32,4.32,0,0,0,.92.84,8.22,8.22,0,0,0,10-.49A1.58,1.58,0,0,0,52,17.13a3.67,3.67,0,0,0-3.25-3.62M42.43,8a3.68,3.68,0,1,0,3.66-3.7A3.69,3.69,0,0,0,42.43,8Z"/><path class="cls-15" d="M44.06,13.47a3.72,3.72,0,0,0-3.7,3,1.76,1.76,0,0,0,.2,1.52,4.07,4.07,0,0,0,.92.84,8.18,8.18,0,0,0,10-.49A1.57,1.57,0,0,0,52,17.11a3.66,3.66,0,0,0-3.26-3.61c-.86-.07-1.72,0-2.59,0"/><path class="cls-15" d="M42.43,8a3.68,3.68,0,1,1,3.69,3.66A3.68,3.68,0,0,1,42.43,8Z"/><path class="cls-14" d="M123.19,61.41l-1.3,0a.85.85,0,0,0-.17,0,10.28,10.28,0,0,1-3.87-1.12,11,11,0,0,1-6-8.29c-.07-.43-.09-.86-.14-1.29l0-1.3c0-.07,0-.13,0-.19a9.78,9.78,0,0,1,1.12-3.85,10.92,10.92,0,0,1,9.76-6.14,10.3,10.3,0,0,1,6.1,1.7,10.91,10.91,0,0,1,5.2,9.23,10.27,10.27,0,0,1-1.45,5.67,10.92,10.92,0,0,1-8,5.51C124,61.34,123.62,61.37,123.19,61.41Zm2.29-9.68-2.67-.1-2.11-.06a3.72,3.72,0,0,0-3.78,2.92,1.79,1.79,0,0,0,.15,1.53,4.31,4.31,0,0,0,.9.86,8.19,8.19,0,0,0,10-.21,1.54,1.54,0,0,0,.59-1.23,3.66,3.66,0,0,0-3.14-3.71m-6.16-5.66A3.68,3.68,0,1,0,123,42.48,3.69,3.69,0,0,0,119.26,46.07Z"/><path class="cls-15" d="M120.73,51.56A3.71,3.71,0,0,0,117,54.47,1.82,1.82,0,0,0,117.1,56a4.64,4.64,0,0,0,.9.87,8.23,8.23,0,0,0,10-.21,1.58,1.58,0,0,0,.6-1.23,3.66,3.66,0,0,0-3.16-3.7c-.86-.1-1.72-.09-2.58-.11"/><path class="cls-15" d="M119.26,46.07a3.68,3.68,0,1,1,3.58,3.77A3.68,3.68,0,0,1,119.26,46.07Z"/><path class="cls-14" d="M12.75,109.24h-1.3a.53.53,0,0,0-.17,0,10.22,10.22,0,0,1-3.9-1A11,11,0,0,1,1.17,100c-.08-.42-.11-.85-.17-1.28V97.43a.58.58,0,0,0,0-.18,10.21,10.21,0,0,1,1-3.88A10.92,10.92,0,0,1,11.69,87a10.21,10.21,0,0,1,6.13,1.56,10.87,10.87,0,0,1,5.42,9.1,10.39,10.39,0,0,1-1.31,5.7,11,11,0,0,1-7.91,5.7C13.6,109.15,13.18,109.18,12.75,109.24Zm2.06-9.73-2.67-.05H10a3.71,3.71,0,0,0-3.71,3A1.74,1.74,0,0,0,6.51,104a4,4,0,0,0,.91.84,8.17,8.17,0,0,0,10-.44,1.54,1.54,0,0,0,.57-1.24,3.67,3.67,0,0,0-3.23-3.64M8.46,94a3.68,3.68,0,1,0,3.68-3.67A3.7,3.7,0,0,0,8.46,94Z"/><path class="cls-15" d="M10.06,99.44a3.72,3.72,0,0,0-3.71,3A1.77,1.77,0,0,0,6.54,104a4.39,4.39,0,0,0,.92.85,8.19,8.19,0,0,0,10-.45,1.55,1.55,0,0,0,.56-1.24,3.67,3.67,0,0,0-3.24-3.63c-.86-.07-1.72,0-2.59,0"/><path class="cls-15" d="M8.46,94a3.68,3.68,0,1,1,3.67,3.69A3.67,3.67,0,0,1,8.46,94Z"/><path class="cls-14" d="M91.06,133.3l-1.3,0-.17,0a10.41,10.41,0,0,1-3.93-.91,11,11,0,0,1-6.46-8c-.1-.42-.15-.85-.22-1.28l0-1.3a1.29,1.29,0,0,0,0-.19,10.11,10.11,0,0,1,.9-3.91,10.92,10.92,0,0,1,9.42-6.66,10.29,10.29,0,0,1,6.18,1.37,10.88,10.88,0,0,1,5.7,8.93,10.4,10.4,0,0,1-1.13,5.74,11,11,0,0,1-7.73,5.94C91.9,133.18,91.48,133.23,91.06,133.3Zm1.75-9.79-2.67,0c-.7,0-1.41,0-2.11.06a3.73,3.73,0,0,0-3.62,3.12,1.81,1.81,0,0,0,.24,1.52,4.34,4.34,0,0,0,.95.81,8.21,8.21,0,0,0,10-.75,1.56,1.56,0,0,0,.52-1.26,3.66,3.66,0,0,0-3.34-3.54m-6.46-5.32a3.68,3.68,0,1,0,3.56-3.78A3.69,3.69,0,0,0,86.29,118.19Z"/><path class="cls-15" d="M88.06,123.59a3.71,3.71,0,0,0-3.61,3.12,1.77,1.77,0,0,0,.23,1.52,4.34,4.34,0,0,0,.95.81,8.21,8.21,0,0,0,10-.75,1.55,1.55,0,0,0,.52-1.26,3.64,3.64,0,0,0-3.35-3.52c-.86-.06-1.72,0-2.59,0"/><path class="cls-15" d="M86.29,118.19a3.68,3.68,0,1,1,3.78,3.57A3.67,3.67,0,0,1,86.29,118.19Z"/><path class="cls-14" d="M56.91,48.55H42.59a5.07,5.07,0,0,0-5.07,5.07V84.05a5.07,5.07,0,0,0,5.07,5.07H83.15a5.07,5.07,0,0,0,5.07-5.07V58.69a5.07,5.07,0,0,0-5.07-5.07H62.87l-4.44-4.44A2.16,2.16,0,0,0,56.91,48.55Z"/><path class="cls-16" d="M62.87,63.49l-9,4.93,9,4.94,7.4-4V75h1.65V68.42M57.11,71.86v3.29l5.76,3.14,5.76-3.14V71.86L62.87,75Z"/></g></g></svg>