<svg width="22" height="26" viewBox="0 0 22 26" fill="none" xmlns="http://www.w3.org/2000/svg">
<path id="Vector" d="M21.5 6.0835C21.5 8.33516 19.6683 10.1668 17.4167 10.1668C15.165 10.1668 13.3333 8.33516 13.3333 6.0835C13.3333 3.83183 15.165 2.00016 17.4167 2.00016C19.6683 2.00016 21.5 3.83183 21.5 6.0835ZM19.1667 12.2552C18.5833 12.4068 18 12.5002 17.4167 12.5002C13.8817 12.5002 11 9.6185 11 6.0835C11 4.3685 11.6767 2.81683 12.75 1.66183C12.3417 1.16016 11.7117 0.833496 11 0.833496C9.71667 0.833496 8.66667 1.8835 8.66667 3.16683V3.50516C5.20167 4.53183 2.83333 7.71683 2.83333 11.3335V18.3335L0.5 20.6668V21.8335H21.5V20.6668L19.1667 18.3335V12.2552ZM11 25.3335C12.295 25.3335 13.3333 24.2952 13.3333 23.0002H8.66667C8.66667 24.2952 9.71667 25.3335 11 25.3335Z" fill="#8C111A"/>
</svg>
