<svg width="20" height="21" viewBox="0 0 20 21" fill="none" xmlns="http://www.w3.org/2000/svg">
<path d="M0.0600586 3.47961L1.37206 2.17786L18.5101 19.3159L17.2083 20.6279L12.2576 15.6771L9.58231 18.3524C7.58356 20.3511 4.33431 20.3511 2.33556 18.3524C0.336808 16.3536 0.336808 13.1044 2.33556 11.1056L3.86281 9.57836C3.85256 10.4189 3.98581 11.2594 4.27281 12.0691L3.79106 12.5509C2.58156 13.7501 2.58156 15.6976 3.79106 16.8969C4.99031 18.1064 6.93781 18.1064 8.13706 16.8969L10.8226 14.2319L9.16206 12.5816C9.15181 12.8276 9.04931 13.0839 8.86481 13.2786C8.46506 13.6784 7.80906 13.6784 7.40931 13.2786C6.33306 12.1921 5.83081 10.7571 5.92306 9.35286L0.0600586 3.47961ZM11.0378 2.40336C13.0366 0.404609 16.2858 0.404609 18.2846 2.40336C20.2833 4.40211 20.2833 7.65136 18.2846 9.65011L16.7573 11.1774C16.7676 10.3369 16.6343 9.49636 16.3473 8.69686L16.8291 8.20486C18.0386 7.00561 18.0386 5.05811 16.8291 3.85886C15.6298 2.64936 13.6823 2.64936 12.4831 3.85886L9.06981 7.27211L7.62456 5.81661L11.0378 2.40336ZM11.7553 7.47711C12.1551 7.07736 12.8111 7.07736 13.2108 7.47711C14.6151 8.88136 15.0353 10.8904 14.4716 12.6636L12.6471 10.8494C12.5958 10.1524 12.2986 9.46561 11.7553 8.93261C11.3351 8.53286 11.3351 7.87686 11.7553 7.47711Z" fill="#A95260"/>
</svg>
