<svg width="17" height="18" viewBox="0 0 17 18" fill="none" xmlns="http://www.w3.org/2000/svg">
<path id="Vector" d="M8.5 1.5C9.36195 1.5 10.1886 1.84241 10.7981 2.4519C11.4076 3.0614 11.75 3.88805 11.75 4.75C11.75 5.61195 11.4076 6.4386 10.7981 7.0481C10.1886 7.65759 9.36195 8 8.5 8C7.63805 8 6.8114 7.65759 6.2019 7.0481C5.59241 6.4386 5.25 5.61195 5.25 4.75C5.25 3.88805 5.59241 3.0614 6.2019 2.4519C6.8114 1.84241 7.63805 1.5 8.5 1.5ZM8.5 12.125C10.7267 12.125 12.6921 12.578 14.0639 13.2639C15.4952 13.9795 16 14.7835 16 15.375V16.5H1L1 15.375C1 14.7835 1.50481 13.9795 2.93612 13.2639C4.30788 12.578 6.27333 12.125 8.5 12.125Z" stroke="#AE4959" stroke-width="2"/>
</svg>
