<svg width="25" height="25" viewBox="0 0 25 25" fill="none" xmlns="http://www.w3.org/2000/svg">
<g id="link-variant">
<path id="Vector" d="M11.394 13.9197C11.8066 14.3122 11.8066 14.9562 11.394 15.3487C11.0015 15.7411 10.3575 15.7411 9.96506 15.3487C8.00279 13.3864 8.00279 10.1965 9.96506 8.23418L13.5273 4.6719C15.4896 2.70963 18.6796 2.70963 20.6418 4.6719C22.6041 6.63417 22.6041 9.82412 20.6418 11.7864L19.1425 13.2858C19.1525 12.4606 19.0217 11.6355 18.7399 10.8505L19.2129 10.3675C20.4003 9.19016 20.4003 7.2782 19.2129 6.10084C18.0355 4.91341 16.1236 4.91341 14.9462 6.10084L11.394 9.65305C10.2066 10.8304 10.2066 12.7424 11.394 13.9197ZM14.2317 9.65305C14.6242 9.2606 15.2682 9.2606 15.6607 9.65305C17.623 11.6153 17.623 14.8053 15.6607 16.7675L12.0984 20.3298C10.1361 22.2921 6.94618 22.2921 4.98391 20.3298C3.02164 18.3676 3.02164 15.1776 4.98391 13.2153L6.48329 11.716C6.47323 12.5411 6.60404 13.3663 6.88581 14.1612L6.41285 14.6342C5.22542 15.8116 5.22542 17.7235 6.41285 18.9009C7.59021 20.0883 9.50217 20.0883 10.6795 18.9009L14.2317 15.3487C15.4192 14.1713 15.4192 12.2594 14.2317 11.082C13.8192 10.6895 13.8192 10.0455 14.2317 9.65305Z" fill="#5C4F51"/>
</g>
</svg>
